<svg width="1331" height="71" viewBox="0 0 1331 71" fill="none" xmlns="http://www.w3.org/2000/svg">
<path d="M1036.07 30C1036.07 13.4315 1051.23 0 1069.94 0H1296.44C1315.14 0 1330.31 13.4315 1330.31 30V30C1330.31 46.5685 1315.14 60 1296.44 60H1069.94C1051.23 60 1036.07 46.5685 1036.07 30V30Z" fill="#AE3DD1"/>
<path d="M1233.76 28.3881L1233.72 30.2421C1234.06 29.6901 1234.53 29.1861 1235.12 28.7301C1235.73 28.2621 1236.31 28.0281 1236.85 28.0281C1237.27 28.0281 1237.64 28.0701 1237.97 28.1541C1238.08 28.3101 1238.13 28.5141 1238.13 28.7661C1238.13 29.1621 1238.04 29.5581 1237.85 29.9541C1237.36 29.8341 1236.89 29.7741 1236.44 29.7741C1235.33 29.7741 1234.42 30.2541 1233.7 31.2141L1233.66 34.3641V37.0821L1235.92 37.3521C1235.97 37.5441 1235.97 37.7841 1235.92 38.0721C1235.06 38.0361 1234.09 38.0181 1232.99 38.0181C1232.16 38.0181 1231.18 38.0301 1230.04 38.0541C1229.96 37.8261 1229.96 37.5921 1230.04 37.3521L1231.65 37.1541C1231.7 36.4941 1231.73 35.7321 1231.73 34.8681V29.9361C1231.73 29.6961 1231.71 29.4741 1231.67 29.2701L1230.06 29.0901C1230.01 28.9101 1230.01 28.6821 1230.06 28.4061C1231 28.3461 1232.16 28.2201 1233.56 28.0281C1233.68 28.1481 1233.75 28.2681 1233.76 28.3881Z" fill="white"/>
<path d="M1228.12 32.9241H1221.74C1221.62 35.9841 1222.66 37.5141 1224.85 37.5141C1225.79 37.5141 1226.74 37.1481 1227.72 36.4161C1227.92 36.5241 1228.08 36.7101 1228.19 36.9741C1227.25 37.8981 1226.07 38.3601 1224.63 38.3601C1221.32 38.3601 1219.67 36.6381 1219.67 33.1941C1219.67 31.5621 1220.16 30.2961 1221.13 29.3961C1222.11 28.4841 1223.25 28.0281 1224.55 28.0281C1225.97 28.0281 1226.99 28.4661 1227.62 29.3421C1228.24 30.2181 1228.55 31.3581 1228.55 32.7621C1228.42 32.8581 1228.27 32.9121 1228.12 32.9241ZM1224.51 28.7481C1223.8 28.7481 1223.2 29.0721 1222.7 29.7201C1222.21 30.3681 1221.91 31.1961 1221.8 32.2041H1224.32C1225.33 32.2041 1226.05 32.1501 1226.48 32.0421C1226.48 31.0581 1226.31 30.2661 1225.97 29.6661C1225.63 29.0541 1225.14 28.7481 1224.51 28.7481Z" fill="white"/>
<path d="M1208.21 26.318C1208.21 25.526 1208.19 24.938 1208.15 24.554L1206.54 24.374C1206.49 24.194 1206.49 23.966 1206.54 23.69C1207.45 23.63 1208.61 23.504 1210.02 23.312C1210.14 23.432 1210.21 23.552 1210.22 23.672C1210.15 23.984 1210.12 24.956 1210.12 26.588V29.99C1211.12 28.766 1212.33 28.154 1213.74 28.154C1214.58 28.154 1215.29 28.34 1215.89 28.712C1216.49 29.084 1216.78 29.72 1216.78 30.62V37.082L1218.43 37.352C1218.48 37.544 1218.48 37.784 1218.43 38.072C1217.58 38.036 1216.71 38.018 1215.83 38.018C1215.21 38.018 1214.33 38.03 1213.19 38.054C1213.11 37.826 1213.11 37.592 1213.19 37.352L1214.79 37.154C1214.85 36.494 1214.87 35.732 1214.87 34.868V31.52C1214.87 30.68 1214.75 30.074 1214.51 29.702C1214.28 29.33 1213.85 29.144 1213.23 29.144C1212.71 29.144 1212.17 29.312 1211.6 29.648C1211.05 29.984 1210.55 30.47 1210.12 31.106V37.082L1211.77 37.352C1211.82 37.544 1211.82 37.784 1211.77 38.072C1210.91 38.036 1210.04 38.018 1209.16 38.018C1208.54 38.018 1207.66 38.03 1206.52 38.054C1206.44 37.826 1206.44 37.592 1206.52 37.352L1208.13 37.154C1208.18 36.494 1208.21 35.732 1208.21 34.868V26.318Z" fill="white"/>
<path d="M1205.45 30.6921C1205.17 30.9561 1204.5 31.0821 1203.44 31.0701C1203.22 29.5581 1202.61 28.8021 1201.59 28.8021C1200.79 28.8021 1200.11 29.2101 1199.56 30.0261C1199 30.8421 1198.73 31.9161 1198.73 33.2481C1198.73 34.6161 1198.97 35.6721 1199.46 36.4161C1199.94 37.1481 1200.68 37.5141 1201.65 37.5141C1202.68 37.5141 1203.69 37.1421 1204.68 36.3981C1204.88 36.5061 1205.04 36.6921 1205.15 36.9561C1204.16 37.8921 1202.92 38.3601 1201.43 38.3601C1200.01 38.3601 1198.84 37.9281 1197.93 37.0641C1197.03 36.1881 1196.57 34.9041 1196.57 33.2121C1196.57 31.5921 1197.07 30.3261 1198.08 29.4141C1199.09 28.4901 1200.25 28.0281 1201.55 28.0281C1202.58 28.0281 1203.49 28.2561 1204.27 28.7121C1205.06 29.1681 1205.45 29.8281 1205.45 30.6921Z" fill="white"/>
<path d="M1191.32 28.3881L1191.27 30.2421C1191.61 29.6901 1192.08 29.1861 1192.68 28.7301C1193.29 28.2621 1193.86 28.0281 1194.4 28.0281C1194.82 28.0281 1195.2 28.0701 1195.52 28.1541C1195.63 28.3101 1195.68 28.5141 1195.68 28.7661C1195.68 29.1621 1195.59 29.5581 1195.4 29.9541C1194.91 29.8341 1194.44 29.7741 1194 29.7741C1192.89 29.7741 1191.97 30.2541 1191.25 31.2141L1191.21 34.3641V37.0821L1193.47 37.3521C1193.52 37.5441 1193.52 37.7841 1193.47 38.0721C1192.62 38.0361 1191.64 38.0181 1190.54 38.0181C1189.72 38.0181 1188.74 38.0301 1187.6 38.0541C1187.52 37.8261 1187.52 37.5921 1187.6 37.3521L1189.2 37.1541C1189.26 36.4941 1189.28 35.7321 1189.28 34.8681V29.9361C1189.28 29.6961 1189.26 29.4741 1189.22 29.2701L1187.62 29.0901C1187.56 28.9101 1187.56 28.6821 1187.62 28.4061C1188.55 28.3461 1189.72 28.2201 1191.11 28.0281C1191.23 28.1481 1191.3 28.2681 1191.32 28.3881Z" fill="white"/>
<path d="M1185.68 32.9241H1179.3C1179.18 35.9841 1180.21 37.5141 1182.41 37.5141C1183.34 37.5141 1184.3 37.1481 1185.27 36.4161C1185.48 36.5241 1185.63 36.7101 1185.74 36.9741C1184.81 37.8981 1183.62 38.3601 1182.18 38.3601C1178.88 38.3601 1177.23 36.6381 1177.23 33.1941C1177.23 31.5621 1177.71 30.2961 1178.69 29.3961C1179.66 28.4841 1180.8 28.0281 1182.1 28.0281C1183.53 28.0281 1184.55 28.4661 1185.17 29.3421C1185.79 30.2181 1186.11 31.3581 1186.11 32.7621C1185.97 32.8581 1185.83 32.9121 1185.68 32.9241ZM1182.06 28.7481C1181.36 28.7481 1180.75 29.0721 1180.25 29.7201C1179.77 30.3681 1179.47 31.1961 1179.36 32.2041H1181.88C1182.88 32.2041 1183.6 32.1501 1184.03 32.0421C1184.03 31.0581 1183.86 30.2661 1183.53 29.6661C1183.19 29.0541 1182.7 28.7481 1182.06 28.7481Z" fill="white"/>
<path d="M1165.76 26.318C1165.76 25.526 1165.74 24.938 1165.7 24.554L1164.1 24.374C1164.04 24.194 1164.04 23.966 1164.1 23.69C1165.01 23.63 1166.16 23.504 1167.57 23.312C1167.69 23.432 1167.76 23.552 1167.78 23.672C1167.71 23.984 1167.67 24.956 1167.67 26.588V29.99C1168.68 28.766 1169.88 28.154 1171.29 28.154C1172.13 28.154 1172.85 28.34 1173.44 28.712C1174.04 29.084 1174.34 29.72 1174.34 30.62V37.082L1175.98 37.352C1176.04 37.544 1176.04 37.784 1175.98 38.072C1175.13 38.036 1174.26 38.018 1173.38 38.018C1172.76 38.018 1171.88 38.03 1170.74 38.054C1170.66 37.826 1170.66 37.592 1170.74 37.352L1172.35 37.154C1172.4 36.494 1172.43 35.732 1172.43 34.868V31.52C1172.43 30.68 1172.31 30.074 1172.06 29.702C1171.83 29.33 1171.41 29.144 1170.78 29.144C1170.27 29.144 1169.73 29.312 1169.16 29.648C1168.6 29.984 1168.11 30.47 1167.67 31.106V37.082L1169.32 37.352C1169.37 37.544 1169.37 37.784 1169.32 38.072C1168.47 38.036 1167.6 38.018 1166.72 38.018C1166.1 38.018 1165.21 38.03 1164.08 38.054C1164 37.826 1164 37.592 1164.08 37.352L1165.68 37.154C1165.74 36.494 1165.76 35.732 1165.76 34.868V26.318Z" fill="white"/>
<path d="M1163.01 30.6921C1162.72 30.9561 1162.05 31.0821 1160.99 31.0701C1160.78 29.5581 1160.16 28.8021 1159.15 28.8021C1158.35 28.8021 1157.67 29.2101 1157.11 30.0261C1156.56 30.8421 1156.28 31.9161 1156.28 33.2481C1156.28 34.6161 1156.52 35.6721 1157.01 36.4161C1157.5 37.1481 1158.23 37.5141 1159.21 37.5141C1160.24 37.5141 1161.25 37.1421 1162.23 36.3981C1162.44 36.5061 1162.59 36.6921 1162.7 36.9561C1161.71 37.8921 1160.47 38.3601 1158.98 38.3601C1157.56 38.3601 1156.4 37.9281 1155.49 37.0641C1154.58 36.1881 1154.13 34.9041 1154.13 33.2121C1154.13 31.5921 1154.63 30.3261 1155.63 29.4141C1156.65 28.4901 1157.8 28.0281 1159.1 28.0281C1160.13 28.0281 1161.04 28.2561 1161.83 28.7121C1162.61 29.1681 1163.01 29.8281 1163.01 30.6921Z" fill="white"/>
<path d="M1151.98 32.9241H1145.6C1145.48 35.9841 1146.52 37.5141 1148.71 37.5141C1149.65 37.5141 1150.6 37.1481 1151.58 36.4161C1151.78 36.5241 1151.94 36.7101 1152.05 36.9741C1151.11 37.8981 1149.93 38.3601 1148.49 38.3601C1145.18 38.3601 1143.53 36.6381 1143.53 33.1941C1143.53 31.5621 1144.02 30.2961 1144.99 29.3961C1145.97 28.4841 1147.11 28.0281 1148.41 28.0281C1149.83 28.0281 1150.85 28.4661 1151.48 29.3421C1152.1 30.2181 1152.41 31.3581 1152.41 32.7621C1152.28 32.8581 1152.13 32.9121 1151.98 32.9241ZM1148.37 28.7481C1147.66 28.7481 1147.06 29.0721 1146.56 29.7201C1146.07 30.3681 1145.77 31.1961 1145.67 32.2041H1148.18C1149.19 32.2041 1149.91 32.1501 1150.34 32.0421C1150.34 31.0581 1150.17 30.2661 1149.83 29.6661C1149.49 29.0541 1149 28.7481 1148.37 28.7481Z" fill="white"/>
<path d="M1129.23 23.6181C1129.78 23.6181 1130.66 23.5941 1131.87 23.5461C1133.09 23.4981 1134.19 23.4741 1135.18 23.4741C1137.24 23.4741 1138.71 23.8401 1139.59 24.5721C1140.47 25.2921 1140.91 26.3001 1140.91 27.5961C1140.91 28.3761 1140.61 29.0781 1140 29.7021C1139.39 30.3261 1138.59 30.7941 1137.6 31.1061C1138.18 31.9821 1138.72 32.8041 1139.23 33.5721C1139.74 34.3401 1140.11 34.9101 1140.34 35.2821C1140.57 35.6541 1140.78 35.9901 1140.97 36.2901C1141.16 36.5781 1141.3 36.7761 1141.38 36.8841C1141.47 36.9921 1141.56 37.0821 1141.64 37.1541L1143.11 37.3341C1143.16 37.5141 1143.16 37.7361 1143.11 38.0001H1139.65L1136.58 33.0681C1136.18 32.3841 1135.79 31.8561 1135.43 31.4841H1135.14C1134.45 31.4841 1133.75 31.4481 1133.05 31.3761V37.2081L1134.9 37.3881C1134.95 37.5681 1134.95 37.7901 1134.9 38.0541C1134.04 38.0181 1133.08 38.0001 1132.01 38.0001C1131.21 38.0001 1130.24 38.0121 1129.11 38.0361C1129.02 37.8201 1129.02 37.6041 1129.11 37.3881L1130.79 37.1721C1130.85 36.7161 1130.87 36.0141 1130.87 35.0661V24.4641L1129.23 24.2841C1129.17 24.1041 1129.17 23.8821 1129.23 23.6181ZM1133.05 26.6061V30.6381C1133.47 30.6861 1134.08 30.7101 1134.88 30.7101C1135.57 30.7101 1136.16 30.6141 1136.64 30.4221C1137.15 30.2181 1137.52 29.9541 1137.76 29.6301C1138.01 29.2941 1138.18 28.9521 1138.29 28.6041C1138.4 28.2561 1138.45 27.8901 1138.45 27.5061C1138.45 26.4741 1138.16 25.6701 1137.58 25.0941C1137 24.5181 1136.03 24.2301 1134.67 24.2301C1134.17 24.2301 1133.67 24.2721 1133.17 24.3561C1133.09 25.0401 1133.05 25.7901 1133.05 26.6061Z" fill="white"/>
<g filter="url(#filter0_d_645_15)">
<path d="M750.562 30.5C750.562 14.2076 765.472 1 783.864 1H1042.66C1061.06 1 1075.97 14.2076 1075.97 30.5V30.5C1075.97 46.7924 1061.06 60 1042.66 60H783.864C765.472 60 750.562 46.7924 750.562 30.5V30.5Z" fill="white"/>
</g>
<path d="M992.415 31.488H986.744C986.635 34.208 987.556 35.568 989.507 35.568C990.338 35.568 991.187 35.2427 992.054 34.592C992.235 34.688 992.373 34.8533 992.469 35.088C991.639 35.9093 990.585 36.32 989.309 36.32C986.37 36.32 984.901 34.7893 984.901 31.728C984.901 30.2773 985.335 29.152 986.202 28.352C987.069 27.5413 988.08 27.136 989.236 27.136C990.501 27.136 991.41 27.5253 991.964 28.304C992.518 29.0827 992.795 30.096 992.795 31.344C992.674 31.4293 992.548 31.4773 992.415 31.488ZM989.2 27.776C988.574 27.776 988.038 28.064 987.593 28.64C987.159 29.216 986.894 29.952 986.798 30.848H989.038C989.929 30.848 990.567 30.8 990.952 30.704C990.952 29.8293 990.802 29.1253 990.501 28.592C990.2 28.048 989.766 27.776 989.2 27.776Z" fill="#212353"/>
<path d="M980.992 25.536V27.824H983.539C983.563 27.952 983.575 28.048 983.575 28.112C983.575 28.208 983.563 28.32 983.539 28.448L980.992 28.784V33.184C980.992 33.9734 981.07 34.5334 981.227 34.864C981.395 35.184 981.654 35.344 982.003 35.344C982.317 35.344 982.804 35.232 983.466 35.008C983.587 35.104 983.671 35.2854 983.719 35.552C983.358 35.744 983.081 35.888 982.888 35.984C982.708 36.0694 982.473 36.144 982.184 36.208C981.907 36.2827 981.612 36.32 981.299 36.32C980.697 36.32 980.203 36.1174 979.818 35.712C979.445 35.296 979.258 34.6667 979.258 33.824V28.592L977.994 28.448C977.97 28.3414 977.958 28.2507 977.958 28.176C977.958 28.0907 977.97 27.9734 977.994 27.824C978.331 27.7707 978.62 27.68 978.861 27.552C979.113 27.4134 979.324 27.2267 979.493 26.992C979.661 26.7467 979.788 26.5334 979.872 26.352C979.968 26.16 980.083 25.888 980.215 25.536C980.324 25.504 980.456 25.488 980.613 25.488C980.757 25.488 980.884 25.504 980.992 25.536Z" fill="#212353"/>
<path d="M970.26 33.872C970.26 34.4267 970.374 34.8213 970.603 35.056C970.832 35.28 971.193 35.392 971.687 35.392C972.048 35.392 972.445 35.296 972.879 35.104C973.324 34.9013 973.734 34.6133 974.107 34.24V31.744C972.867 31.808 971.916 32.0053 971.253 32.336C970.591 32.656 970.26 33.168 970.26 33.872ZM974.107 31.168V30.352C974.107 29.4453 973.987 28.7893 973.746 28.384C973.517 27.968 973.132 27.76 972.59 27.76C972.036 27.76 971.59 27.92 971.253 28.24C970.916 28.5493 970.687 29.0827 970.567 29.84C970.182 29.9147 969.899 29.952 969.718 29.952C969.248 29.952 968.971 29.8027 968.887 29.504C968.887 28.7787 969.242 28.2027 969.953 27.776C970.663 27.3493 971.548 27.136 972.608 27.136C973.776 27.136 974.601 27.3493 975.082 27.776C975.576 28.192 975.823 28.944 975.823 30.032V34.544C975.823 34.8107 975.841 35.04 975.877 35.232L977.304 35.392C977.352 35.552 977.352 35.7547 977.304 36C976.449 36.032 975.54 36.1067 974.577 36.224C974.48 36.1387 974.42 36.032 974.396 35.904L974.306 34.8C973.306 35.8133 972.192 36.32 970.964 36.32C970.206 36.32 969.61 36.128 969.176 35.744C968.755 35.36 968.544 34.8427 968.544 34.192C968.544 33.2107 969.044 32.4693 970.043 31.968C971.055 31.4667 972.409 31.2 974.107 31.168Z" fill="#212353"/>
<path d="M965.943 33.7281C965.943 34.4428 965.961 34.9441 965.997 35.2321L967.424 35.3921C967.46 35.5628 967.46 35.7654 967.424 36.0001C966.545 36.0321 965.63 36.1068 964.679 36.2241C964.595 36.1494 964.534 36.0481 964.498 35.9201L964.408 34.8961C963.987 35.3334 963.463 35.6854 962.837 35.9521C962.21 36.2081 961.554 36.3361 960.868 36.3361C959.82 36.3361 958.953 35.9521 958.267 35.1841C957.58 34.4054 957.237 33.3708 957.237 32.0801C957.237 30.5868 957.683 29.3921 958.574 28.4961C959.477 27.5894 960.555 27.1361 961.807 27.1361C962.794 27.1361 963.601 27.3441 964.227 27.7601V25.6161C964.227 24.9121 964.209 24.3894 964.173 24.0481L962.746 23.8881C962.698 23.7281 962.698 23.5254 962.746 23.2801C963.577 23.2268 964.613 23.1148 965.853 22.9441C965.961 23.0508 966.022 23.1574 966.034 23.2641C965.973 23.5414 965.943 24.4054 965.943 25.8561V33.7281ZM961.663 28.0001C960.88 28.0001 960.254 28.3681 959.784 29.1041C959.314 29.8294 959.08 30.8374 959.08 32.1281C959.08 33.1841 959.296 33.9894 959.73 34.5441C960.175 35.0988 960.759 35.3761 961.482 35.3761C961.915 35.3761 962.391 35.2588 962.909 35.0241C963.427 34.7788 963.866 34.4428 964.227 34.0161V28.8961C963.637 28.2988 962.782 28.0001 961.663 28.0001Z" fill="#212353"/>
<path d="M950.654 31.488H944.982C944.874 34.208 945.795 35.568 947.746 35.568C948.577 35.568 949.426 35.2427 950.293 34.592C950.473 34.688 950.612 34.8533 950.708 35.088C949.877 35.9093 948.824 36.32 947.547 36.32C944.609 36.32 943.14 34.7893 943.14 31.728C943.14 30.2773 943.574 29.152 944.441 28.352C945.308 27.5413 946.319 27.136 947.475 27.136C948.739 27.136 949.649 27.5253 950.202 28.304C950.756 29.0827 951.033 30.096 951.033 31.344C950.913 31.4293 950.786 31.4773 950.654 31.488ZM947.439 27.776C946.813 27.776 946.277 28.064 945.831 28.64C945.398 29.216 945.133 29.952 945.037 30.848H947.276C948.167 30.848 948.806 30.8 949.191 30.704C949.191 29.8293 949.04 29.1253 948.739 28.592C948.438 28.048 948.005 27.776 947.439 27.776Z" fill="#212353"/>
<path d="M938.792 30.288C938.792 29.4667 938.666 28.8907 938.413 28.56C938.172 28.2293 937.763 28.064 937.185 28.064C936.294 28.064 935.396 28.656 934.493 29.84V35.184L935.956 35.424C936.005 35.5947 936.005 35.808 935.956 36.064C935.198 36.032 934.421 36.016 933.626 36.016C933.072 36.016 932.29 36.0267 931.278 36.048C931.206 35.8453 931.206 35.6373 931.278 35.424L932.705 35.248C932.753 34.6613 932.777 33.984 932.777 33.216V28.832C932.777 28.6187 932.759 28.4213 932.723 28.24L931.296 28.08C931.248 27.92 931.248 27.7173 931.296 27.472C932.127 27.4187 933.163 27.3067 934.403 27.136C934.511 27.2427 934.572 27.3493 934.584 27.456C934.523 27.7333 934.493 28.208 934.493 28.88C935.445 27.7173 936.516 27.136 937.708 27.136C939.575 27.136 940.508 27.92 940.508 29.488V35.184L941.971 35.424C942.019 35.5947 942.019 35.808 941.971 36.064C941.212 36.032 940.436 36.016 939.641 36.016C939.087 36.016 938.304 36.0267 937.293 36.048C937.221 35.8453 937.221 35.6373 937.293 35.424L938.72 35.248C938.768 34.6613 938.792 33.984 938.792 33.216V30.288Z" fill="#212353"/>
<path d="M928.854 27.456V33.728C928.854 34.4427 928.872 34.944 928.908 35.232L930.335 35.392C930.371 35.5627 930.371 35.7653 930.335 36C929.456 36.032 928.541 36.1067 927.589 36.224C927.505 36.1493 927.445 36.048 927.409 35.92L927.319 34.496C926.813 35.072 926.289 35.52 925.747 35.84C925.217 36.16 924.591 36.32 923.869 36.32C923.134 36.32 922.514 36.1547 922.008 35.824C921.515 35.4933 921.268 34.928 921.268 34.128V30.576C921.268 29.36 921.25 28.5813 921.214 28.24L919.787 28.08C919.738 27.92 919.738 27.7173 919.787 27.472C920.617 27.4187 921.653 27.3067 922.893 27.136C923.002 27.2427 923.062 27.3493 923.074 27.456C923.014 27.7333 922.984 29.6907 922.984 33.328C922.984 34.0747 923.08 34.608 923.273 34.928C923.477 35.2373 923.851 35.392 924.392 35.392C925.404 35.392 926.319 34.8587 927.138 33.792V30.56C927.138 29.3547 927.12 28.5813 927.084 28.24L925.657 28.08C925.609 27.92 925.609 27.7173 925.657 27.472C926.379 27.4293 927.385 27.3173 928.673 27.136C928.782 27.2427 928.842 27.3493 928.854 27.456Z" fill="#212353"/>
<path d="M911.902 25.536V27.824H914.448C914.472 27.952 914.485 28.048 914.485 28.112C914.485 28.208 914.472 28.32 914.448 28.448L911.902 28.784V33.184C911.902 33.9734 911.98 34.5334 912.136 34.864C912.305 35.184 912.564 35.344 912.913 35.344C913.226 35.344 913.714 35.232 914.376 35.008C914.497 35.104 914.581 35.2854 914.629 35.552C914.268 35.744 913.991 35.888 913.798 35.984C913.618 36.0694 913.383 36.144 913.094 36.208C912.817 36.2827 912.522 36.32 912.209 36.32C911.607 36.32 911.113 36.1174 910.728 35.712C910.354 35.296 910.168 34.6667 910.168 33.824V28.592L908.903 28.448C908.879 28.3414 908.867 28.2507 908.867 28.176C908.867 28.0907 908.879 27.9734 908.903 27.824C909.24 27.7707 909.529 27.68 909.77 27.552C910.023 27.4134 910.234 27.2267 910.402 26.992C910.571 26.7467 910.697 26.5334 910.782 26.352C910.878 26.16 910.992 25.888 911.125 25.536C911.233 25.504 911.366 25.488 911.522 25.488C911.667 25.488 911.793 25.504 911.902 25.536Z" fill="#212353"/>
<path d="M907.216 31.488H901.545C901.437 34.208 902.358 35.568 904.308 35.568C905.139 35.568 905.988 35.2427 906.855 34.592C907.036 34.688 907.174 34.8533 907.271 35.088C906.44 35.9093 905.386 36.32 904.11 36.32C901.172 36.32 899.703 34.7893 899.703 31.728C899.703 30.2773 900.136 29.152 901.003 28.352C901.87 27.5413 902.882 27.136 904.038 27.136C905.302 27.136 906.211 27.5253 906.765 28.304C907.319 29.0827 907.596 30.096 907.596 31.344C907.475 31.4293 907.349 31.4773 907.216 31.488ZM904.001 27.776C903.375 27.776 902.839 28.064 902.394 28.64C901.96 29.216 901.695 29.952 901.599 30.848H903.839C904.73 30.848 905.368 30.8 905.753 30.704C905.753 29.8293 905.603 29.1253 905.302 28.592C905.001 28.048 904.567 27.776 904.001 27.776Z" fill="#212353"/>
<path d="M892.472 27.456V33.728C892.472 34.4427 892.49 34.944 892.526 35.232L893.953 35.392C893.989 35.5627 893.989 35.7653 893.953 36C893.074 36.032 892.159 36.1067 891.208 36.224C891.123 36.1493 891.063 36.048 891.027 35.92L890.937 34.496C890.431 35.072 889.907 35.52 889.365 35.84C888.835 36.16 888.209 36.32 887.487 36.32C886.752 36.32 886.132 36.1547 885.626 35.824C885.133 35.4933 884.886 34.928 884.886 34.128V30.576C884.886 29.36 884.868 28.5813 884.832 28.24L883.405 28.08C883.357 27.92 883.357 27.7173 883.405 27.472C884.236 27.4187 885.271 27.3067 886.511 27.136C886.62 27.2427 886.68 27.3493 886.692 27.456C886.632 27.7333 886.602 29.6907 886.602 33.328C886.602 34.0747 886.698 34.608 886.891 34.928C887.095 35.2373 887.469 35.392 888.011 35.392C889.022 35.392 889.937 34.8587 890.756 33.792V30.56C890.756 29.3547 890.738 28.5813 890.702 28.24L889.275 28.08C889.227 27.92 889.227 27.7173 889.275 27.472C889.997 27.4293 891.003 27.3173 892.291 27.136C892.4 27.2427 892.46 27.3493 892.472 27.456Z" fill="#212353"/>
<path d="M881.899 31.488H876.227C876.119 34.208 877.04 35.568 878.991 35.568C879.821 35.568 880.67 35.2427 881.537 34.592C881.718 34.688 881.856 34.8533 881.953 35.088C881.122 35.9093 880.068 36.32 878.792 36.32C875.854 36.32 874.385 34.7893 874.385 31.728C874.385 30.2773 874.818 29.152 875.685 28.352C876.552 27.5413 877.564 27.136 878.72 27.136C879.984 27.136 880.893 27.5253 881.447 28.304C882.001 29.0827 882.278 30.096 882.278 31.344C882.157 31.4293 882.031 31.4773 881.899 31.488ZM878.684 27.776C878.057 27.776 877.522 28.064 877.076 28.64C876.643 29.216 876.378 29.952 876.281 30.848H878.521C879.412 30.848 880.05 30.8 880.436 30.704C880.436 29.8293 880.285 29.1253 879.984 28.592C879.683 28.048 879.249 27.776 878.684 27.776Z" fill="#212353"/>
<path d="M871.647 30.048V35.184L873.11 35.424C873.122 35.4774 873.128 35.5254 873.128 35.568C873.14 35.6107 873.146 35.6587 873.146 35.712C873.146 35.7654 873.14 35.824 873.128 35.888C873.128 35.9414 873.122 36 873.11 36.064C872.352 36.032 871.575 36.016 870.78 36.016C870.503 36.016 870.166 36.016 869.769 36.016C869.383 36.0267 868.938 36.0374 868.432 36.048C868.396 35.952 868.378 35.8507 868.378 35.744C868.378 35.648 868.396 35.5414 868.432 35.424L869.859 35.248C869.883 34.9494 869.901 34.6347 869.913 34.304C869.925 33.9627 869.931 33.6 869.931 33.216V29.808C869.931 29.104 869.913 28.5814 869.877 28.24L868.45 28.08C868.426 28.0267 868.414 27.936 868.414 27.808C868.414 27.7547 868.414 27.7014 868.414 27.648C868.414 27.5947 868.426 27.536 868.45 27.472C869.269 27.4294 870.305 27.3174 871.557 27.136C871.665 27.2427 871.725 27.3494 871.737 27.456C871.677 27.7547 871.647 28.6187 871.647 30.048ZM869.01 24.336C868.986 24.2827 868.974 24.2294 868.974 24.176C868.974 24.112 868.974 24.0534 868.974 24C868.974 23.712 869.106 23.4827 869.371 23.312C869.648 23.1307 869.985 23.04 870.383 23.04C870.756 23.04 871.057 23.1414 871.286 23.344C871.527 23.536 871.647 23.8027 871.647 24.144C871.647 24.4214 871.509 24.6454 871.232 24.816C870.967 24.9867 870.624 25.072 870.202 25.072C869.913 25.072 869.654 25.008 869.426 24.88C869.209 24.752 869.07 24.5707 869.01 24.336Z" fill="#212353"/>
<path d="M865.961 25.8561V35.1841L867.424 35.4241C867.472 35.5948 867.472 35.8081 867.424 36.0641C866.665 36.0321 865.888 36.0161 865.094 36.0161C864.54 36.0161 863.757 36.0268 862.746 36.0481C862.673 35.8454 862.673 35.6374 862.746 35.4241L864.172 35.2481C864.221 34.6614 864.245 33.9841 864.245 33.2161V24.0481L862.764 23.8881C862.715 23.7281 862.715 23.5254 862.764 23.2801C863.595 23.2268 864.63 23.1148 865.87 22.9441C865.979 23.0508 866.039 23.1574 866.051 23.2641C865.991 23.5414 865.961 24.4054 865.961 25.8561Z" fill="#212353"/>
<path d="M854.332 30.288C854.332 29.4667 854.206 28.8907 853.953 28.56C853.712 28.2293 853.303 28.064 852.725 28.064C851.834 28.064 850.937 28.656 850.033 29.84V35.184L851.496 35.424C851.545 35.5947 851.545 35.808 851.496 36.064C850.738 36.032 849.961 36.016 849.166 36.016C848.613 36.016 847.83 36.0267 846.818 36.048C846.746 35.8453 846.746 35.6373 846.818 35.424L848.245 35.248C848.293 34.6613 848.318 33.984 848.318 33.216V28.832C848.318 28.6187 848.299 28.4213 848.263 28.24L846.836 28.08C846.788 27.92 846.788 27.7173 846.836 27.472C847.667 27.4187 848.703 27.3067 849.943 27.136C850.051 27.2427 850.112 27.3493 850.124 27.456C850.064 27.7333 850.033 28.208 850.033 28.88C850.985 27.7173 852.056 27.136 853.248 27.136C855.115 27.136 856.048 27.92 856.048 29.488V35.184L857.511 35.424C857.559 35.5947 857.559 35.808 857.511 36.064C856.752 36.032 855.976 36.016 855.181 36.016C854.627 36.016 853.844 36.0267 852.833 36.048C852.761 35.8453 852.761 35.6373 852.833 35.424L854.26 35.248C854.308 34.6613 854.332 33.984 854.332 33.216V30.288Z" fill="#212353"/>
<path d="M843.337 31.9361V23.9681L841.874 23.8081V23.2161C842.536 23.2587 843.144 23.2801 843.698 23.2801C844.156 23.2801 844.77 23.2641 845.54 23.2321V23.8081L844.402 24.0001C844.354 24.4054 844.33 25.0294 844.33 25.8721V31.8401C844.282 33.3547 843.879 34.4801 843.12 35.2161C842.361 35.9521 841.031 36.3201 839.128 36.3201C835.54 36.3201 833.746 34.8747 833.746 31.9841V23.9681L832.283 23.8081C832.235 23.6481 832.235 23.4507 832.283 23.2161C832.945 23.2587 833.77 23.2801 834.757 23.2801C835.636 23.2801 836.467 23.2641 837.25 23.2321C837.322 23.4241 837.322 23.6161 837.25 23.8081L835.751 24.0001C835.702 24.4054 835.678 25.0294 835.678 25.8721V31.9841C835.678 33.1787 835.991 34.0321 836.618 34.5441C837.244 35.0454 838.279 35.2961 839.724 35.2961C841.085 35.2961 842.024 35.0347 842.542 34.5121C843.072 33.9787 843.337 33.1201 843.337 31.9361Z" fill="#212353"/>
<g filter="url(#filter1_d_645_15)">
<path d="M499.964 30C499.964 13.4315 515.126 0 533.83 0H752.852C771.556 0 786.719 13.4315 786.719 30V30C786.719 46.5685 771.556 60 752.852 60H533.83C515.126 60 499.964 46.5685 499.964 30V30Z" fill="white"/>
</g>
<g filter="url(#filter2_d_645_15)">
<path d="M5 30.5C5 13.6553 20.4152 0 39.4309 0H509.169C528.185 0 543.6 13.6553 543.6 30.5C543.6 47.3447 528.185 61 509.169 61H39.4308C20.4152 61 5 47.3447 5 30.5Z" fill="white"/>
</g>
<path d="M334.405 36.5759C335.056 36.5759 335.537 36.4426 335.85 36.1759C336.164 35.9093 336.32 35.5999 336.32 35.2479C336.32 35.0453 336.284 34.8586 336.212 34.6879C336.139 34.5173 336.019 34.3519 335.85 34.1919C335.694 34.0319 335.483 33.8773 335.218 33.7279C334.953 33.5679 334.622 33.3973 334.225 33.2159C333.731 32.9919 333.304 32.7786 332.942 32.5759C332.593 32.3733 332.304 32.1599 332.075 31.9359C331.847 31.7119 331.672 31.4719 331.552 31.2159C331.443 30.9599 331.389 30.6719 331.389 30.3519C331.389 29.9679 331.467 29.6373 331.624 29.3599C331.78 29.0719 331.997 28.8373 332.274 28.6559C332.563 28.4639 332.9 28.3253 333.286 28.2399C333.671 28.1439 334.098 28.0959 334.568 28.0959C335.507 28.0959 336.422 28.2986 337.313 28.7039V30.7519H336.465L336.067 29.0239C335.537 28.7999 334.977 28.6879 334.387 28.6879C333.4 28.6879 332.906 29.0453 332.906 29.7599C332.906 30.1439 333.069 30.4959 333.394 30.8159C333.719 31.1359 334.243 31.4559 334.965 31.7759C335.459 31.9999 335.893 32.2133 336.266 32.4159C336.639 32.6186 336.946 32.8319 337.187 33.0559C337.44 33.2799 337.627 33.5253 337.747 33.7919C337.879 34.0479 337.946 34.3413 337.946 34.6719C337.946 35.0453 337.855 35.3919 337.675 35.7119C337.494 36.0319 337.241 36.3093 336.916 36.5439C336.591 36.7679 336.2 36.9439 335.742 37.0719C335.285 37.2106 334.779 37.2799 334.225 37.2799C333.153 37.2799 332.148 37.0773 331.208 36.6719V34.6239H332.057L332.455 36.2079C333.069 36.4533 333.719 36.5759 334.405 36.5759Z" fill="#212353"/>
<path d="M328.513 28.4159V34.6879C328.513 35.4026 328.532 35.9039 328.568 36.1919L329.995 36.3519C330.031 36.5226 330.031 36.7253 329.995 36.9599C329.116 36.9919 328.2 37.0666 327.249 37.1839C327.165 37.1093 327.105 37.0079 327.068 36.8799L326.978 35.4559C326.472 36.0319 325.949 36.4799 325.407 36.7999C324.877 37.1199 324.251 37.2799 323.528 37.2799C322.794 37.2799 322.174 37.1146 321.668 36.7839C321.174 36.4533 320.927 35.8879 320.927 35.0879V31.5359C320.927 30.3199 320.909 29.5413 320.873 29.1999L319.446 29.0399C319.398 28.8799 319.398 28.6773 319.446 28.4319C320.277 28.3786 321.313 28.2666 322.553 28.0959C322.661 28.2026 322.722 28.3093 322.734 28.4159C322.673 28.6933 322.643 30.6506 322.643 34.2879C322.643 35.0346 322.74 35.5679 322.932 35.8879C323.137 36.1973 323.51 36.3519 324.052 36.3519C325.064 36.3519 325.979 35.8186 326.798 34.7519V31.5199C326.798 30.3146 326.779 29.5413 326.743 29.1999L325.316 29.0399C325.268 28.8799 325.268 28.6773 325.316 28.4319C326.039 28.3893 327.044 28.2773 328.333 28.0959C328.441 28.2026 328.501 28.3093 328.513 28.4159Z" fill="#212353"/>
<path d="M309.19 32.7039C309.19 32.0639 309.293 31.4666 309.497 30.9119C309.714 30.3466 310.021 29.8559 310.419 29.4399C310.816 29.0239 311.292 28.6986 311.846 28.4639C312.411 28.2186 313.044 28.0959 313.742 28.0959C314.428 28.0959 315.055 28.2186 315.621 28.4639C316.186 28.6986 316.668 29.0239 317.065 29.4399C317.475 29.8559 317.788 30.3466 318.005 30.9119C318.221 31.4666 318.33 32.0639 318.33 32.7039C318.33 33.3653 318.215 33.9733 317.987 34.5279C317.77 35.0826 317.457 35.5679 317.047 35.9839C316.65 36.3893 316.168 36.7093 315.602 36.9439C315.037 37.1679 314.416 37.2799 313.742 37.2799C313.032 37.2799 312.393 37.1679 311.827 36.9439C311.274 36.7199 310.798 36.4053 310.401 35.9999C310.015 35.5946 309.714 35.1146 309.497 34.5599C309.293 33.9946 309.19 33.3759 309.19 32.7039ZM311.827 29.7599C311.31 30.4106 311.051 31.3919 311.051 32.7039C311.051 33.3546 311.117 33.9253 311.25 34.4159C311.394 34.9066 311.587 35.3173 311.827 35.6479C312.068 35.9679 312.351 36.2079 312.676 36.3679C313.002 36.5279 313.357 36.6079 313.742 36.6079C314.115 36.6079 314.471 36.5279 314.808 36.3679C315.145 36.2079 315.434 35.9679 315.675 35.6479C315.916 35.3173 316.108 34.9066 316.253 34.4159C316.397 33.9253 316.469 33.3546 316.469 32.7039C316.469 32.0533 316.397 31.4826 316.253 30.9919C316.108 30.4906 315.91 30.0799 315.657 29.7599C315.416 29.4293 315.127 29.1839 314.79 29.0239C314.465 28.8533 314.115 28.7679 313.742 28.7679C312.996 28.7679 312.357 29.0986 311.827 29.7599Z" fill="#212353"/>
<path d="M303.506 37.6639H303.127L299.388 29.1999L298.25 29.0079C298.202 28.8373 298.202 28.6239 298.25 28.3679C298.912 28.4106 299.629 28.4319 300.399 28.4319C301.086 28.4319 301.814 28.4159 302.585 28.3839C302.657 28.5973 302.657 28.8053 302.585 29.0079L301.447 29.1999L302.91 32.8799C303.331 33.9466 303.608 34.7199 303.741 35.1999H303.777C304.066 34.2826 304.349 33.5359 304.626 32.9599L306.179 29.1359L304.77 29.0079C304.722 28.8373 304.722 28.6239 304.77 28.3679C305.433 28.4106 306.065 28.4319 306.667 28.4319C307.173 28.4319 307.817 28.4159 308.6 28.3839C308.672 28.5973 308.672 28.8053 308.6 29.0079L307.245 29.1839L303.506 37.6639Z" fill="#212353"/>
<path d="M296.994 31.4399H291.63C291.521 31.1199 291.521 30.8532 291.63 30.6399H296.994C297.09 30.8852 297.09 31.1519 296.994 31.4399Z" fill="#212353"/>
<path d="M282.322 36.416L287.541 29.152H283.839L283.098 31.216C282.918 31.2587 282.695 31.2587 282.43 31.216L282.484 28.416H289.564C289.613 28.64 289.613 28.8373 289.564 29.008L284.543 36.16H288.174L288.878 34.16C289.059 34.1174 289.281 34.1174 289.546 34.16L289.492 36.96H282.322C282.261 36.8 282.261 36.6187 282.322 36.416Z" fill="#212353"/>
<path d="M280.237 32.4479H274.566C274.458 35.1679 275.379 36.5279 277.329 36.5279C278.16 36.5279 279.009 36.2026 279.876 35.5519C280.057 35.6479 280.195 35.8133 280.292 36.0479C279.461 36.8693 278.407 37.2799 277.131 37.2799C274.193 37.2799 272.724 35.7493 272.724 32.6879C272.724 31.2373 273.157 30.1119 274.024 29.3119C274.891 28.5013 275.903 28.0959 277.059 28.0959C278.323 28.0959 279.232 28.4853 279.786 29.2639C280.34 30.0426 280.617 31.0559 280.617 32.3039C280.496 32.3893 280.37 32.4373 280.237 32.4479ZM277.022 28.7359C276.396 28.7359 275.86 29.0239 275.415 29.5999C274.981 30.1759 274.716 30.9119 274.62 31.8079H276.86C277.751 31.8079 278.389 31.7599 278.774 31.6639C278.774 30.7893 278.624 30.0853 278.323 29.5519C278.022 29.0079 277.588 28.7359 277.022 28.7359Z" fill="#212353"/>
<path d="M267.003 37.6639H266.624L262.885 29.1999L261.747 29.0079C261.699 28.8373 261.699 28.6239 261.747 28.3679C262.409 28.4106 263.126 28.4319 263.896 28.4319C264.583 28.4319 265.311 28.4159 266.082 28.3839C266.154 28.5973 266.154 28.8053 266.082 29.0079L264.944 29.1999L266.407 32.8799C266.829 33.9466 267.105 34.7199 267.238 35.1999H267.274C267.563 34.2826 267.846 33.5359 268.123 32.9599L269.676 29.1359L268.267 29.0079C268.219 28.8373 268.219 28.6239 268.267 28.3679C268.93 28.4106 269.562 28.4319 270.164 28.4319C270.67 28.4319 271.314 28.4159 272.097 28.3839C272.169 28.5973 272.169 28.8053 272.097 29.0079L270.742 29.1839L267.003 37.6639Z" fill="#212353"/>
<path d="M259.894 31.008V36.144L261.357 36.384C261.369 36.4373 261.375 36.4853 261.375 36.528C261.387 36.5707 261.393 36.6187 261.393 36.672C261.393 36.7253 261.387 36.784 261.375 36.848C261.375 36.9013 261.369 36.96 261.357 37.024C260.599 36.992 259.822 36.976 259.027 36.976C258.75 36.976 258.413 36.976 258.016 36.976C257.63 36.9867 257.185 36.9973 256.679 37.008C256.643 36.912 256.625 36.8107 256.625 36.704C256.625 36.608 256.643 36.5013 256.679 36.384L258.106 36.208C258.13 35.9093 258.148 35.5947 258.16 35.264C258.172 34.9227 258.178 34.56 258.178 34.176V30.768C258.178 30.064 258.16 29.5413 258.124 29.2L256.697 29.04C256.673 28.9867 256.661 28.896 256.661 28.768C256.661 28.7147 256.661 28.6613 256.661 28.608C256.661 28.5547 256.673 28.496 256.697 28.432C257.516 28.3893 258.552 28.2773 259.804 28.096C259.912 28.2027 259.973 28.3093 259.985 28.416C259.924 28.7147 259.894 29.5787 259.894 31.008ZM257.257 25.296C257.233 25.2427 257.221 25.1893 257.221 25.136C257.221 25.072 257.221 25.0133 257.221 24.96C257.221 24.672 257.354 24.4427 257.618 24.272C257.895 24.0907 258.233 24 258.63 24C259.003 24 259.304 24.1013 259.533 24.304C259.774 24.496 259.894 24.7627 259.894 25.104C259.894 25.3813 259.756 25.6053 259.479 25.776C259.214 25.9467 258.871 26.032 258.449 26.032C258.16 26.032 257.901 25.968 257.673 25.84C257.456 25.712 257.317 25.5307 257.257 25.296Z" fill="#212353"/>
<path d="M252.045 28.4159L252.009 30.0639C252.31 29.5733 252.725 29.1253 253.255 28.7199C253.797 28.3039 254.309 28.0959 254.791 28.0959C255.164 28.0959 255.495 28.1333 255.784 28.2079C255.88 28.3466 255.928 28.5279 255.928 28.7519C255.928 29.1039 255.844 29.4559 255.676 29.8079C255.242 29.7013 254.827 29.6479 254.429 29.6479C253.442 29.6479 252.629 30.0746 251.991 30.9279L251.955 33.7279V36.1439L253.96 36.3839C254.008 36.5546 254.008 36.7679 253.96 37.0239C253.201 36.9919 252.334 36.9759 251.359 36.9759C250.624 36.9759 249.751 36.9866 248.74 37.0079C248.667 36.8053 248.667 36.5973 248.74 36.3839L250.167 36.2079C250.215 35.6213 250.239 34.9439 250.239 34.1759V29.7919C250.239 29.5786 250.221 29.3813 250.185 29.1999L248.758 29.0399C248.71 28.8799 248.71 28.6773 248.758 28.4319C249.589 28.3786 250.624 28.2666 251.864 28.0959C251.973 28.2026 252.033 28.3093 252.045 28.4159Z" fill="#212353"/>
<path d="M247.499 30.4639C247.246 30.6986 246.65 30.8106 245.71 30.7999C245.518 29.4559 244.97 28.7839 244.067 28.7839C243.356 28.7839 242.754 29.1466 242.261 29.8719C241.767 30.5973 241.52 31.5519 241.52 32.7359C241.52 33.9519 241.737 34.8906 242.17 35.5519C242.604 36.2026 243.254 36.5279 244.121 36.5279C245.036 36.5279 245.933 36.1973 246.812 35.5359C246.993 35.6319 247.131 35.7973 247.228 36.0319C246.349 36.8639 245.247 37.2799 243.922 37.2799C242.658 37.2799 241.622 36.8959 240.816 36.1279C240.009 35.3493 239.605 34.2079 239.605 32.7039C239.605 31.2639 240.051 30.1386 240.942 29.3279C241.845 28.5066 242.875 28.0959 244.031 28.0959C244.946 28.0959 245.753 28.2986 246.451 28.7039C247.149 29.1093 247.499 29.6959 247.499 30.4639Z" fill="#212353"/>
<path d="M234.476 36.5759C235.127 36.5759 235.608 36.4426 235.921 36.1759C236.234 35.9093 236.391 35.5999 236.391 35.2479C236.391 35.0453 236.355 34.8586 236.282 34.6879C236.21 34.5173 236.09 34.3519 235.921 34.1919C235.765 34.0319 235.554 33.8773 235.289 33.7279C235.024 33.5679 234.693 33.3973 234.296 33.2159C233.802 32.9919 233.375 32.7786 233.013 32.5759C232.664 32.3733 232.375 32.1599 232.146 31.9359C231.917 31.7119 231.743 31.4719 231.622 31.2159C231.514 30.9599 231.46 30.6719 231.46 30.3519C231.46 29.9679 231.538 29.6373 231.695 29.3599C231.851 29.0719 232.068 28.8373 232.345 28.6559C232.634 28.4639 232.971 28.3253 233.356 28.2399C233.742 28.1439 234.169 28.0959 234.639 28.0959C235.578 28.0959 236.493 28.2986 237.384 28.7039V30.7519H236.535L236.138 29.0239C235.608 28.7999 235.048 28.6879 234.458 28.6879C233.471 28.6879 232.977 29.0453 232.977 29.7599C232.977 30.1439 233.14 30.4959 233.465 30.8159C233.79 31.1359 234.314 31.4559 235.036 31.7759C235.53 31.9999 235.963 32.2133 236.337 32.4159C236.71 32.6186 237.017 32.8319 237.258 33.0559C237.511 33.2799 237.697 33.5253 237.818 33.7919C237.95 34.0479 238.016 34.3413 238.016 34.6719C238.016 35.0453 237.926 35.3919 237.746 35.7119C237.565 36.0319 237.312 36.3093 236.987 36.5439C236.662 36.7679 236.27 36.9439 235.813 37.0719C235.355 37.2106 234.85 37.2799 234.296 37.2799C233.224 37.2799 232.219 37.0773 231.279 36.6719V34.6239H232.128L232.526 36.2079C233.14 36.4533 233.79 36.5759 234.476 36.5759Z" fill="#212353"/>
<path d="M226.932 31.2479C226.932 30.4266 226.805 29.8506 226.552 29.5199C226.312 29.1893 225.902 29.0239 225.324 29.0239C224.433 29.0239 223.536 29.6159 222.633 30.7999V36.1439L224.096 36.3839C224.144 36.5546 224.144 36.7679 224.096 37.0239C223.337 36.9919 222.561 36.9759 221.766 36.9759C221.212 36.9759 220.429 36.9866 219.418 37.0079C219.346 36.8053 219.346 36.5973 219.418 36.3839L220.845 36.2079C220.893 35.6213 220.917 34.9439 220.917 34.1759V29.7919C220.917 29.5786 220.899 29.3813 220.863 29.1999L219.436 29.0399C219.388 28.8799 219.388 28.6773 219.436 28.4319C220.267 28.3786 221.302 28.2666 222.543 28.0959C222.651 28.2026 222.711 28.3093 222.723 28.4159C222.663 28.6933 222.633 29.1679 222.633 29.8399C223.584 28.6773 224.656 28.0959 225.848 28.0959C227.714 28.0959 228.648 28.8799 228.648 30.4479V36.1439L230.111 36.3839C230.159 36.5546 230.159 36.7679 230.111 37.0239C229.352 36.9919 228.575 36.9759 227.781 36.9759C227.227 36.9759 226.444 36.9866 225.433 37.0079C225.36 36.8053 225.36 36.5973 225.433 36.3839L226.86 36.2079C226.908 35.6213 226.932 34.9439 226.932 34.1759V31.2479Z" fill="#212353"/>
<path d="M216.365 26.832V36.256L217.828 36.416C217.876 36.576 217.876 36.7734 217.828 37.008C217.069 36.976 216.244 36.96 215.353 36.96C214.703 36.96 213.872 36.9707 212.861 36.992C212.789 36.8 212.789 36.608 212.861 36.416L214.36 36.224C214.408 35.8187 214.432 35.1947 214.432 34.352V24.928L212.969 24.768C212.921 24.608 212.921 24.4107 212.969 24.176C213.631 24.2187 214.456 24.24 215.444 24.24C216.323 24.24 217.154 24.224 217.936 24.192C218.009 24.384 218.009 24.576 217.936 24.768L216.437 24.96C216.389 25.3654 216.365 25.9894 216.365 26.832Z" fill="#212353"/>
<path d="M725.492 32.5439H719.82C719.712 35.2639 720.633 36.6239 722.584 36.6239C723.415 36.6239 724.264 36.2986 725.131 35.6479C725.311 35.7439 725.45 35.9092 725.546 36.1439C724.715 36.9652 723.662 37.3759 722.385 37.3759C719.447 37.3759 717.978 35.8452 717.978 32.7839C717.978 31.3332 718.412 30.2079 719.278 29.4079C720.145 28.5972 721.157 28.1919 722.313 28.1919C723.577 28.1919 724.486 28.5812 725.04 29.3599C725.594 30.1386 725.871 31.1519 725.871 32.3999C725.751 32.4852 725.624 32.5332 725.492 32.5439ZM722.277 28.8319C721.651 28.8319 721.115 29.1199 720.669 29.6959C720.236 30.2719 719.971 31.0079 719.875 31.9039H722.114C723.005 31.9039 723.644 31.8559 724.029 31.7599C724.029 30.8852 723.878 30.1812 723.577 29.6479C723.276 29.1039 722.843 28.8319 722.277 28.8319Z" fill="#212353"/>
<path d="M707.699 26.672C707.699 25.968 707.681 25.4453 707.645 25.104L706.218 24.944C706.17 24.784 706.17 24.5813 706.218 24.336C707.025 24.2827 708.054 24.1707 709.306 24C709.415 24.1067 709.475 24.2133 709.487 24.32C709.427 24.5973 709.397 25.4613 709.397 26.912V29.936C710.288 28.848 711.359 28.304 712.612 28.304C713.358 28.304 713.996 28.4693 714.526 28.8C715.056 29.1307 715.321 29.696 715.321 30.496V36.24L716.784 36.48C716.832 36.6507 716.832 36.864 716.784 37.12C716.025 37.088 715.255 37.072 714.472 37.072C713.918 37.072 713.136 37.0827 712.124 37.104C712.052 36.9013 712.052 36.6933 712.124 36.48L713.551 36.304C713.599 35.7173 713.623 35.04 713.623 34.272V31.296C713.623 30.5493 713.515 30.0107 713.298 29.68C713.093 29.3493 712.714 29.184 712.16 29.184C711.703 29.184 711.221 29.3333 710.715 29.632C710.222 29.9307 709.782 30.3627 709.397 30.928V36.24L710.86 36.48C710.908 36.6507 710.908 36.864 710.86 37.12C710.101 37.088 709.33 37.072 708.548 37.072C707.994 37.072 707.211 37.0827 706.2 37.104C706.127 36.9013 706.127 36.6933 706.2 36.48L707.627 36.304C707.675 35.7173 707.699 35.04 707.699 34.272V26.672Z" fill="#212353"/>
<path d="M705.157 30.5599C704.904 30.7946 704.308 30.9066 703.369 30.8959C703.176 29.5519 702.629 28.8799 701.725 28.8799C701.015 28.8799 700.413 29.2426 699.919 29.9679C699.426 30.6932 699.179 31.6479 699.179 32.8319C699.179 34.0479 699.395 34.9866 699.829 35.6479C700.262 36.2986 700.913 36.6239 701.78 36.6239C702.695 36.6239 703.592 36.2932 704.471 35.6319C704.652 35.7279 704.79 35.8932 704.886 36.1279C704.007 36.9599 702.906 37.3759 701.581 37.3759C700.317 37.3759 699.281 36.9919 698.474 36.2239C697.668 35.4452 697.264 34.3039 697.264 32.7999C697.264 31.3599 697.71 30.2346 698.601 29.4239C699.504 28.6026 700.533 28.1919 701.689 28.1919C702.605 28.1919 703.411 28.3946 704.11 28.7999C704.808 29.2052 705.157 29.7919 705.157 30.5599Z" fill="#212353"/>
<path d="M695.096 32.5439H689.424C689.316 35.2639 690.237 36.6239 692.188 36.6239C693.019 36.6239 693.868 36.2986 694.735 35.6479C694.915 35.7439 695.054 35.9092 695.15 36.1439C694.319 36.9652 693.266 37.3759 691.989 37.3759C689.051 37.3759 687.582 35.8452 687.582 32.7839C687.582 31.3332 688.016 30.2079 688.883 29.4079C689.749 28.5972 690.761 28.1919 691.917 28.1919C693.181 28.1919 694.09 28.5812 694.644 29.3599C695.198 30.1386 695.475 31.1519 695.475 32.3999C695.355 32.4852 695.228 32.5332 695.096 32.5439ZM691.881 28.8319C691.255 28.8319 690.719 29.1199 690.273 29.6959C689.84 30.2719 689.575 31.0079 689.479 31.9039H691.718C692.609 31.9039 693.248 31.8559 693.633 31.7599C693.633 30.8852 693.482 30.1812 693.181 29.6479C692.88 29.1039 692.447 28.8319 691.881 28.8319ZM691.772 27.4079L689.46 24.9439C690.135 24.3359 690.659 24.1386 691.032 24.3519L692.549 27.1359C692.381 27.2319 692.122 27.3226 691.772 27.4079Z" fill="#212353"/>
<path d="M682.657 28.5119L682.621 30.1599C682.922 29.6692 683.338 29.2212 683.868 28.8159C684.409 28.3999 684.921 28.1919 685.403 28.1919C685.776 28.1919 686.107 28.2292 686.396 28.3039C686.493 28.4426 686.541 28.6239 686.541 28.8479C686.541 29.1999 686.456 29.5519 686.288 29.9039C685.854 29.7972 685.439 29.7439 685.042 29.7439C684.054 29.7439 683.241 30.1706 682.603 31.0239L682.567 33.8239V36.2399L684.572 36.4799C684.62 36.6506 684.62 36.8639 684.572 37.1199C683.813 37.0879 682.946 37.0719 681.971 37.0719C681.237 37.0719 680.364 37.0826 679.352 37.1039C679.28 36.9012 679.28 36.6932 679.352 36.4799L680.779 36.3039C680.827 35.7172 680.851 35.0399 680.851 34.2719V29.8879C680.851 29.6746 680.833 29.4772 680.797 29.2959L679.37 29.1359C679.322 28.9759 679.322 28.7732 679.37 28.5279C680.201 28.4746 681.237 28.3626 682.477 28.1919C682.585 28.2986 682.645 28.4052 682.657 28.5119Z" fill="#212353"/>
<path d="M678.111 30.5599C677.858 30.7946 677.262 30.9066 676.323 30.8959C676.13 29.5519 675.582 28.8799 674.679 28.8799C673.969 28.8799 673.367 29.2426 672.873 29.9679C672.379 30.6932 672.132 31.6479 672.132 32.8319C672.132 34.0479 672.349 34.9866 672.783 35.6479C673.216 36.2986 673.866 36.6239 674.733 36.6239C675.648 36.6239 676.546 36.2932 677.425 35.6319C677.605 35.7279 677.744 35.8932 677.84 36.1279C676.961 36.9599 675.859 37.3759 674.535 37.3759C673.27 37.3759 672.235 36.9919 671.428 36.2239C670.621 35.4452 670.218 34.3039 670.218 32.7999C670.218 31.3599 670.663 30.2346 671.554 29.4239C672.457 28.6026 673.487 28.1919 674.643 28.1919C675.558 28.1919 676.365 28.3946 677.063 28.7999C677.762 29.2052 678.111 29.7919 678.111 30.5599Z" fill="#212353"/>
<path d="M663.689 32.5439H658.017C657.909 35.2639 658.83 36.6239 660.781 36.6239C661.611 36.6239 662.46 36.2986 663.327 35.6479C663.508 35.7439 663.646 35.9092 663.743 36.1439C662.912 36.9652 661.858 37.3759 660.582 37.3759C657.644 37.3759 656.175 35.8452 656.175 32.7839C656.175 31.3332 656.608 30.2079 657.475 29.4079C658.342 28.5972 659.354 28.1919 660.51 28.1919C661.774 28.1919 662.683 28.5812 663.237 29.3599C663.791 30.1386 664.068 31.1519 664.068 32.3999C663.948 32.4852 663.821 32.5332 663.689 32.5439ZM660.474 28.8319C659.847 28.8319 659.312 29.1199 658.866 29.6959C658.433 30.2719 658.168 31.0079 658.071 31.9039H660.311C661.202 31.9039 661.84 31.8559 662.226 31.7599C662.226 30.8852 662.075 30.1812 661.774 29.6479C661.473 29.1039 661.04 28.8319 660.474 28.8319Z" fill="#212353"/>
<path d="M651.827 31.3439C651.827 30.5226 651.7 29.9466 651.447 29.6159C651.207 29.2852 650.797 29.1199 650.219 29.1199C649.328 29.1199 648.431 29.7119 647.528 30.8959V36.2399L648.991 36.4799C649.039 36.6506 649.039 36.8639 648.991 37.1199C648.232 37.0879 647.456 37.0719 646.661 37.0719C646.107 37.0719 645.324 37.0826 644.313 37.1039C644.241 36.9012 644.241 36.6932 644.313 36.4799L645.74 36.3039C645.788 35.7172 645.812 35.0399 645.812 34.2719V29.8879C645.812 29.6746 645.794 29.4772 645.758 29.2959L644.331 29.1359C644.283 28.9759 644.283 28.7732 644.331 28.5279C645.162 28.4746 646.197 28.3626 647.438 28.1919C647.546 28.2986 647.606 28.4052 647.618 28.5119C647.558 28.7892 647.528 29.2639 647.528 29.9359C648.479 28.7732 649.551 28.1919 650.743 28.1919C652.609 28.1919 653.543 28.9759 653.543 30.5439V36.2399L655.006 36.4799C655.054 36.6506 655.054 36.8639 655.006 37.1199C654.247 37.0879 653.47 37.0719 652.676 37.0719C652.122 37.0719 651.339 37.0826 650.328 37.1039C650.255 36.9012 650.255 36.6932 650.328 36.4799L651.755 36.3039C651.803 35.7172 651.827 35.0399 651.827 34.2719V31.3439Z" fill="#212353"/>
<path d="M641.888 28.5119V34.7839C641.888 35.4986 641.907 35.9999 641.943 36.2879L643.37 36.4479C643.406 36.6186 643.406 36.8212 643.37 37.0559C642.491 37.0879 641.575 37.1626 640.624 37.2799C640.54 37.2052 640.48 37.1039 640.443 36.9759L640.353 35.5519C639.847 36.1279 639.324 36.5759 638.782 36.8959C638.252 37.2159 637.626 37.3759 636.903 37.3759C636.169 37.3759 635.549 37.2106 635.043 36.8799C634.549 36.5492 634.302 35.9839 634.302 35.1839V31.6319C634.302 30.4159 634.284 29.6372 634.248 29.2959L632.821 29.1359C632.773 28.9759 632.773 28.7732 632.821 28.5279C633.652 28.4746 634.688 28.3626 635.928 28.1919C636.036 28.2986 636.097 28.4052 636.109 28.5119C636.048 28.7892 636.018 30.7466 636.018 34.3839C636.018 35.1306 636.115 35.6639 636.307 35.9839C636.512 36.2932 636.885 36.4479 637.427 36.4479C638.439 36.4479 639.354 35.9146 640.173 34.8479V31.6159C640.173 30.4106 640.154 29.6372 640.118 29.2959L638.691 29.1359C638.643 28.9759 638.643 28.7732 638.691 28.5279C639.414 28.4852 640.419 28.3732 641.708 28.1919C641.816 28.2986 641.876 28.4052 641.888 28.5119Z" fill="#212353"/>
<path d="M623.941 28.5119L623.904 30.1599C624.206 29.6692 624.621 29.2212 625.151 28.8159C625.693 28.3999 626.204 28.1919 626.686 28.1919C627.059 28.1919 627.39 28.2292 627.679 28.3039C627.776 28.4426 627.824 28.6239 627.824 28.8479C627.824 29.1999 627.74 29.5519 627.571 29.9039C627.138 29.7972 626.722 29.7439 626.325 29.7439C625.337 29.7439 624.525 30.1706 623.886 31.0239L623.85 33.8239V36.2399L625.855 36.4799C625.903 36.6506 625.903 36.8639 625.855 37.1199C625.097 37.0879 624.23 37.0719 623.254 37.0719C622.52 37.0719 621.647 37.0826 620.635 37.1039C620.563 36.9012 620.563 36.6932 620.635 36.4799L622.062 36.3039C622.11 35.7172 622.134 35.0399 622.134 34.2719V29.8879C622.134 29.6746 622.116 29.4772 622.08 29.2959L620.653 29.1359C620.605 28.9759 620.605 28.7732 620.653 28.5279C621.484 28.4746 622.52 28.3626 623.76 28.1919C623.868 28.2986 623.929 28.4052 623.941 28.5119Z" fill="#212353"/>
<path d="M618.84 32.5439H613.169C613.06 35.2639 613.981 36.6239 615.932 36.6239C616.763 36.6239 617.612 36.2986 618.479 35.6479C618.659 35.7439 618.798 35.9092 618.894 36.1439C618.063 36.9652 617.01 37.3759 615.733 37.3759C612.795 37.3759 611.326 35.8452 611.326 32.7839C611.326 31.3332 611.76 30.2079 612.627 29.4079C613.494 28.5972 614.505 28.1919 615.661 28.1919C616.925 28.1919 617.835 28.5812 618.388 29.3599C618.942 30.1386 619.219 31.1519 619.219 32.3999C619.099 32.4852 618.972 32.5332 618.84 32.5439ZM615.625 28.8319C614.999 28.8319 614.463 29.1199 614.017 29.6959C613.584 30.2719 613.319 31.0079 613.223 31.9039H615.462C616.353 31.9039 616.992 31.8559 617.377 31.7599C617.377 30.8852 617.226 30.1812 616.925 29.6479C616.624 29.1039 616.191 28.8319 615.625 28.8319Z" fill="#212353"/>
<path d="M605.606 37.7601H605.226L601.488 29.2961L600.35 29.1041C600.301 28.9334 600.301 28.7201 600.35 28.4641C601.012 28.5068 601.728 28.5281 602.499 28.5281C603.185 28.5281 603.914 28.5121 604.685 28.4801C604.757 28.6934 604.757 28.9014 604.685 29.1041L603.547 29.2961L605.01 32.9761C605.431 34.0428 605.708 34.8161 605.84 35.2961H605.877C606.166 34.3788 606.449 33.6321 606.726 33.0561L608.279 29.2321L606.87 29.1041C606.822 28.9334 606.822 28.7201 606.87 28.4641C607.532 28.5068 608.164 28.5281 608.767 28.5281C609.272 28.5281 609.916 28.5121 610.699 28.4801C610.771 28.6934 610.771 28.9014 610.699 29.1041L609.345 29.2801L605.606 37.7601Z" fill="#212353"/>
<path d="M598.539 28.5119V34.7839C598.539 35.4986 598.557 35.9999 598.594 36.2879L600.02 36.4479C600.057 36.6186 600.057 36.8212 600.02 37.0559C599.141 37.0879 598.226 37.1626 597.275 37.2799C597.191 37.2052 597.13 37.1039 597.094 36.9759L597.004 35.5519C596.498 36.1279 595.975 36.5759 595.433 36.8959C594.903 37.2159 594.277 37.3759 593.554 37.3759C592.82 37.3759 592.2 37.2106 591.694 36.8799C591.2 36.5492 590.953 35.9839 590.953 35.1839V31.6319C590.953 30.4159 590.935 29.6372 590.899 29.2959L589.472 29.1359C589.424 28.9759 589.424 28.7732 589.472 28.5279C590.303 28.4746 591.339 28.3626 592.579 28.1919C592.687 28.2986 592.747 28.4052 592.759 28.5119C592.699 28.7892 592.669 30.7466 592.669 34.3839C592.669 35.1306 592.765 35.6639 592.958 35.9839C593.163 36.2932 593.536 36.4479 594.078 36.4479C595.089 36.4479 596.005 35.9146 596.823 34.8479V31.6159C596.823 30.4106 596.805 29.6372 596.769 29.2959L595.342 29.1359C595.294 28.9759 595.294 28.7732 595.342 28.5279C596.065 28.4852 597.07 28.3732 598.359 28.1919C598.467 28.2986 598.527 28.4052 598.539 28.5119Z" fill="#212353"/>
<path d="M579.216 32.7999C579.216 32.1599 579.319 31.5626 579.523 31.0079C579.74 30.4426 580.047 29.9519 580.445 29.5359C580.842 29.1199 581.318 28.7946 581.871 28.5599C582.437 28.3146 583.07 28.1919 583.768 28.1919C584.454 28.1919 585.08 28.3146 585.646 28.5599C586.212 28.7946 586.694 29.1199 587.091 29.5359C587.501 29.9519 587.814 30.4426 588.031 31.0079C588.247 31.5626 588.356 32.1599 588.356 32.7999C588.356 33.4612 588.241 34.0692 588.013 34.6239C587.796 35.1786 587.483 35.6639 587.073 36.0799C586.676 36.4852 586.194 36.8052 585.628 37.0399C585.062 37.2639 584.442 37.3759 583.768 37.3759C583.058 37.3759 582.419 37.2639 581.853 37.0399C581.299 36.8159 580.824 36.5012 580.426 36.0959C580.041 35.6906 579.74 35.2106 579.523 34.6559C579.319 34.0906 579.216 33.4719 579.216 32.7999ZM581.853 29.8559C581.336 30.5066 581.077 31.4879 581.077 32.7999C581.077 33.4506 581.143 34.0212 581.275 34.5119C581.42 35.0026 581.613 35.4132 581.853 35.7439C582.094 36.0639 582.377 36.3039 582.702 36.4639C583.027 36.6239 583.383 36.7039 583.768 36.7039C584.141 36.7039 584.496 36.6239 584.834 36.4639C585.171 36.3039 585.46 36.0639 585.701 35.7439C585.941 35.4132 586.134 35.0026 586.279 34.5119C586.423 34.0212 586.495 33.4506 586.495 32.7999C586.495 32.1492 586.423 31.5786 586.279 31.0879C586.134 30.5866 585.935 30.1759 585.683 29.8559C585.442 29.5252 585.153 29.2799 584.816 29.1199C584.49 28.9492 584.141 28.8639 583.768 28.8639C583.021 28.8639 582.383 29.1946 581.853 29.8559Z" fill="#212353"/>
<path d="M574.418 28.5119L574.382 30.1599C574.683 29.6692 575.098 29.2212 575.628 28.8159C576.17 28.3999 576.682 28.1919 577.164 28.1919C577.537 28.1919 577.868 28.2292 578.157 28.3039C578.253 28.4426 578.301 28.6239 578.301 28.8479C578.301 29.1999 578.217 29.5519 578.049 29.9039C577.615 29.7972 577.2 29.7439 576.802 29.7439C575.815 29.7439 575.002 30.1706 574.364 31.0239L574.328 33.8239V36.2399L576.333 36.4799C576.381 36.6506 576.381 36.8639 576.333 37.1199C575.574 37.0879 574.707 37.0719 573.732 37.0719C572.997 37.0719 572.124 37.0826 571.113 37.1039C571.041 36.9012 571.041 36.6932 571.113 36.4799L572.54 36.3039C572.588 35.7172 572.612 35.0399 572.612 34.2719V29.8879C572.612 29.6746 572.594 29.4772 572.558 29.2959L571.131 29.1359C571.083 28.9759 571.083 28.7732 571.131 28.5279C571.962 28.4746 572.997 28.3626 574.238 28.1919C574.346 28.2986 574.406 28.4052 574.418 28.5119Z" fill="#212353"/>
<path d="M558.339 24.3201H570.82L570.838 28.0321C570.573 28.0747 570.35 28.0747 570.17 28.0321L569.321 25.1361H565.564V36.3521L567.388 36.5121C567.436 36.6721 567.436 36.8694 567.388 37.1041C566.629 37.0721 565.714 37.0561 564.643 37.0561C563.812 37.0561 562.891 37.0667 561.879 37.0881C561.807 36.8961 561.807 36.7041 561.879 36.5121L563.559 36.3201C563.607 35.9147 563.631 35.2907 563.631 34.4481V25.1361H559.838L558.989 28.0321C558.808 28.0747 558.586 28.0747 558.321 28.0321L558.339 24.3201Z" fill="#212353"/>
<defs>
<filter id="filter0_d_645_15" x="745.562" y="1" width="335.404" height="69" filterUnits="userSpaceOnUse" color-interpolation-filters="sRGB">
<feFlood flood-opacity="0" result="BackgroundImageFix"/>
<feColorMatrix in="SourceAlpha" type="matrix" values="0 0 0 0 0 0 0 0 0 0 0 0 0 0 0 0 0 0 127 0" result="hardAlpha"/>
<feOffset dy="5"/>
<feGaussianBlur stdDeviation="2.5"/>
<feColorMatrix type="matrix" values="0 0 0 0 0.294064 0 0 0 0 0.364384 0 0 0 0 0.405936 0 0 0 0.1 0"/>
<feBlend mode="normal" in2="BackgroundImageFix" result="effect1_dropShadow_645_15"/>
<feBlend mode="normal" in="SourceGraphic" in2="effect1_dropShadow_645_15" result="shape"/>
</filter>
<filter id="filter1_d_645_15" x="494.964" y="0" width="296.755" height="70" filterUnits="userSpaceOnUse" color-interpolation-filters="sRGB">
<feFlood flood-opacity="0" result="BackgroundImageFix"/>
<feColorMatrix in="SourceAlpha" type="matrix" values="0 0 0 0 0 0 0 0 0 0 0 0 0 0 0 0 0 0 127 0" result="hardAlpha"/>
<feOffset dy="5"/>
<feGaussianBlur stdDeviation="2.5"/>
<feColorMatrix type="matrix" values="0 0 0 0 0.294064 0 0 0 0 0.364384 0 0 0 0 0.405936 0 0 0 0.1 0"/>
<feBlend mode="normal" in2="BackgroundImageFix" result="effect1_dropShadow_645_15"/>
<feBlend mode="normal" in="SourceGraphic" in2="effect1_dropShadow_645_15" result="shape"/>
</filter>
<filter id="filter2_d_645_15" x="0" y="0" width="548.6" height="71" filterUnits="userSpaceOnUse" color-interpolation-filters="sRGB">
<feFlood flood-opacity="0" result="BackgroundImageFix"/>
<feColorMatrix in="SourceAlpha" type="matrix" values="0 0 0 0 0 0 0 0 0 0 0 0 0 0 0 0 0 0 127 0" result="hardAlpha"/>
<feOffset dy="5"/>
<feGaussianBlur stdDeviation="2.5"/>
<feColorMatrix type="matrix" values="0 0 0 0 0.294064 0 0 0 0 0.364384 0 0 0 0 0.405936 0 0 0 0.1 0"/>
<feBlend mode="normal" in2="BackgroundImageFix" result="effect1_dropShadow_645_15"/>
<feBlend mode="normal" in="SourceGraphic" in2="effect1_dropShadow_645_15" result="shape"/>
</filter>
</defs>
</svg>
