<svg width="77" height="77" viewBox="0 0 77 77" fill="none" xmlns="http://www.w3.org/2000/svg">
<path fill-rule="evenodd" clip-rule="evenodd" d="M74.9952 19.0299C74.9952 19.0299 72.5188 7.19619 61.8186 3.03839C56.7077 1.03945 47.524 0.0799576 38.5 0C29.476 0.0799576 20.2923 1.03945 15.2613 2.95843C4.56025 7.11623 2.08465 18.95 2.08465 18.95C0.487486 25.6664 -0.0715216 32.4628 0.0083366 38.4596C-0.0715216 44.5364 0.407628 51.3328 2.08465 58.0492C2.08465 58.0492 4.56025 69.883 15.2613 74.0408C20.2923 75.9598 29.476 76.9192 38.5 77C47.524 76.9192 56.7077 76.0397 61.7379 74.0408C72.4397 69.883 74.9145 58.0492 74.9145 58.0492C76.5117 51.3328 77.0715 44.5364 76.9916 38.5396C77.0715 32.4628 76.5923 25.6664 74.9952 19.0299Z" fill="url(#paint0_linear_1_4530)"/>
<defs>
<linearGradient id="paint0_linear_1_4530" x1="129.405" y1="61.7539" x2="43.2929" y2="-43.056" gradientUnits="userSpaceOnUse">
<stop stop-color="#00F2FE"/>
<stop offset="0.661458" stop-color="#34C4FE"/>
<stop offset="1" stop-color="#4FACFE"/>
</linearGradient>
</defs>
</svg>
