<svg width="1068" height="71" viewBox="0 0 1068 71" fill="none" xmlns="http://www.w3.org/2000/svg">
<rect x="832" width="236" height="60" rx="30" fill="#7E72F2"/>
<path d="M916.198 23.618C916.69 23.618 917.47 23.594 918.538 23.546C919.618 23.498 920.596 23.474 921.472 23.474C923.296 23.474 924.598 23.84 925.378 24.572C926.158 25.292 926.548 26.3 926.548 27.596C926.548 28.376 926.278 29.078 925.738 29.702C925.198 30.326 924.49 30.794 923.614 31.106C924.13 31.982 924.61 32.804 925.054 33.572C925.51 34.34 925.84 34.91 926.044 35.282C926.248 35.654 926.434 35.99 926.602 36.29C926.77 36.578 926.89 36.776 926.962 36.884C927.046 36.992 927.124 37.082 927.196 37.154L928.492 37.334C928.54 37.514 928.54 37.736 928.492 38H925.432L922.714 33.068C922.354 32.384 922.012 31.856 921.688 31.484H921.436C920.824 31.484 920.206 31.448 919.582 31.376V37.208L921.22 37.388C921.268 37.568 921.268 37.79 921.22 38.054C920.464 38.018 919.612 38 918.664 38C917.956 38 917.098 38.012 916.09 38.036C916.018 37.82 916.018 37.604 916.09 37.388L917.584 37.172C917.632 36.716 917.656 36.014 917.656 35.066V24.464L916.198 24.284C916.15 24.104 916.15 23.882 916.198 23.618ZM919.582 26.606V30.638C919.954 30.686 920.494 30.71 921.202 30.71C921.814 30.71 922.336 30.614 922.768 30.422C923.212 30.218 923.542 29.954 923.758 29.63C923.974 29.294 924.13 28.952 924.226 28.604C924.322 28.256 924.37 27.89 924.37 27.506C924.37 26.474 924.112 25.67 923.596 25.094C923.08 24.518 922.222 24.23 921.022 24.23C920.578 24.23 920.134 24.272 919.69 24.356C919.618 25.04 919.582 25.79 919.582 26.606ZM936.357 32.924H930.705C930.597 35.984 931.515 37.514 933.459 37.514C934.287 37.514 935.133 37.148 935.997 36.416C936.177 36.524 936.315 36.71 936.411 36.974C935.583 37.898 934.533 38.36 933.261 38.36C930.333 38.36 928.869 36.638 928.869 33.194C928.869 31.562 929.301 30.296 930.165 29.396C931.029 28.484 932.037 28.028 933.189 28.028C934.449 28.028 935.355 28.466 935.907 29.342C936.459 30.218 936.735 31.358 936.735 32.762C936.615 32.858 936.489 32.912 936.357 32.924ZM933.153 28.748C932.529 28.748 931.995 29.072 931.551 29.72C931.119 30.368 930.855 31.196 930.759 32.204H932.991C933.879 32.204 934.515 32.15 934.899 32.042C934.899 31.058 934.749 30.266 934.449 29.666C934.149 29.054 933.717 28.748 933.153 28.748ZM946.12 30.692C945.868 30.956 945.274 31.082 944.338 31.07C944.146 29.558 943.6 28.802 942.7 28.802C941.992 28.802 941.392 29.21 940.9 30.026C940.408 30.842 940.162 31.916 940.162 33.248C940.162 34.616 940.378 35.672 940.81 36.416C941.242 37.148 941.89 37.514 942.754 37.514C943.666 37.514 944.56 37.142 945.436 36.398C945.616 36.506 945.754 36.692 945.85 36.956C944.974 37.892 943.876 38.36 942.556 38.36C941.296 38.36 940.264 37.928 939.46 37.064C938.656 36.188 938.254 34.904 938.254 33.212C938.254 31.592 938.698 30.326 939.586 29.414C940.486 28.49 941.512 28.028 942.664 28.028C943.576 28.028 944.38 28.256 945.076 28.712C945.772 29.168 946.12 29.828 946.12 30.692ZM948.563 26.318C948.563 25.526 948.545 24.938 948.509 24.554L947.087 24.374C947.039 24.194 947.039 23.966 947.087 23.69C947.891 23.63 948.917 23.504 950.165 23.312C950.273 23.432 950.333 23.552 950.345 23.672C950.285 23.984 950.255 24.956 950.255 26.588V29.99C951.143 28.766 952.211 28.154 953.459 28.154C954.203 28.154 954.839 28.34 955.367 28.712C955.895 29.084 956.159 29.72 956.159 30.62V37.082L957.617 37.352C957.665 37.544 957.665 37.784 957.617 38.072C956.861 38.036 956.093 38.018 955.313 38.018C954.761 38.018 953.981 38.03 952.973 38.054C952.901 37.826 952.901 37.592 952.973 37.352L954.395 37.154C954.443 36.494 954.467 35.732 954.467 34.868V31.52C954.467 30.68 954.359 30.074 954.143 29.702C953.939 29.33 953.561 29.144 953.009 29.144C952.553 29.144 952.073 29.312 951.569 29.648C951.077 29.984 950.639 30.47 950.255 31.106V37.082L951.713 37.352C951.761 37.544 951.761 37.784 951.713 38.072C950.957 38.036 950.189 38.018 949.409 38.018C948.857 38.018 948.077 38.03 947.069 38.054C946.997 37.826 946.997 37.592 947.069 37.352L948.491 37.154C948.539 36.494 948.563 35.732 948.563 34.868V26.318ZM966.204 32.924H960.552C960.444 35.984 961.362 37.514 963.306 37.514C964.134 37.514 964.98 37.148 965.844 36.416C966.024 36.524 966.162 36.71 966.258 36.974C965.43 37.898 964.38 38.36 963.108 38.36C960.18 38.36 958.716 36.638 958.716 33.194C958.716 31.562 959.148 30.296 960.012 29.396C960.876 28.484 961.884 28.028 963.036 28.028C964.296 28.028 965.202 28.466 965.754 29.342C966.306 30.218 966.582 31.358 966.582 32.762C966.462 32.858 966.336 32.912 966.204 32.924ZM963 28.748C962.376 28.748 961.842 29.072 961.398 29.72C960.966 30.368 960.702 31.196 960.606 32.204H962.838C963.726 32.204 964.362 32.15 964.746 32.042C964.746 31.058 964.596 30.266 964.296 29.666C963.996 29.054 963.564 28.748 963 28.748ZM971.197 28.388L971.161 30.242C971.461 29.69 971.875 29.186 972.403 28.73C972.943 28.262 973.453 28.028 973.933 28.028C974.305 28.028 974.635 28.07 974.923 28.154C975.019 28.31 975.067 28.514 975.067 28.766C975.067 29.162 974.983 29.558 974.815 29.954C974.383 29.834 973.969 29.774 973.573 29.774C972.589 29.774 971.779 30.254 971.143 31.214L971.107 34.364V37.082L973.105 37.352C973.153 37.544 973.153 37.784 973.105 38.072C972.349 38.036 971.485 38.018 970.513 38.018C969.781 38.018 968.911 38.03 967.903 38.054C967.831 37.826 967.831 37.592 967.903 37.352L969.325 37.154C969.373 36.494 969.397 35.732 969.397 34.868V29.936C969.397 29.696 969.379 29.474 969.343 29.27L967.921 29.09C967.873 28.91 967.873 28.682 967.921 28.406C968.749 28.346 969.781 28.22 971.017 28.028C971.125 28.148 971.185 28.268 971.197 28.388ZM983.719 30.692C983.467 30.956 982.873 31.082 981.937 31.07C981.745 29.558 981.199 28.802 980.299 28.802C979.591 28.802 978.991 29.21 978.499 30.026C978.007 30.842 977.761 31.916 977.761 33.248C977.761 34.616 977.977 35.672 978.409 36.416C978.841 37.148 979.489 37.514 980.353 37.514C981.265 37.514 982.159 37.142 983.035 36.398C983.215 36.506 983.353 36.692 983.449 36.956C982.573 37.892 981.475 38.36 980.155 38.36C978.895 38.36 977.863 37.928 977.059 37.064C976.255 36.188 975.853 34.904 975.853 33.212C975.853 31.592 976.297 30.326 977.185 29.414C978.085 28.49 979.111 28.028 980.263 28.028C981.175 28.028 981.979 28.256 982.675 28.712C983.371 29.168 983.719 29.828 983.719 30.692ZM986.162 26.318C986.162 25.526 986.144 24.938 986.108 24.554L984.686 24.374C984.638 24.194 984.638 23.966 984.686 23.69C985.49 23.63 986.516 23.504 987.764 23.312C987.872 23.432 987.932 23.552 987.944 23.672C987.884 23.984 987.854 24.956 987.854 26.588V29.99C988.742 28.766 989.81 28.154 991.058 28.154C991.802 28.154 992.438 28.34 992.966 28.712C993.494 29.084 993.758 29.72 993.758 30.62V37.082L995.216 37.352C995.264 37.544 995.264 37.784 995.216 38.072C994.46 38.036 993.692 38.018 992.912 38.018C992.36 38.018 991.58 38.03 990.572 38.054C990.5 37.826 990.5 37.592 990.572 37.352L991.994 37.154C992.042 36.494 992.066 35.732 992.066 34.868V31.52C992.066 30.68 991.958 30.074 991.742 29.702C991.538 29.33 991.16 29.144 990.608 29.144C990.152 29.144 989.672 29.312 989.168 29.648C988.676 29.984 988.238 30.47 987.854 31.106V37.082L989.312 37.352C989.36 37.544 989.36 37.784 989.312 38.072C988.556 38.036 987.788 38.018 987.008 38.018C986.456 38.018 985.676 38.03 984.668 38.054C984.596 37.826 984.596 37.592 984.668 37.352L986.09 37.154C986.138 36.494 986.162 35.732 986.162 34.868V26.318ZM1003.8 32.924H998.152C998.044 35.984 998.962 37.514 1000.91 37.514C1001.73 37.514 1002.58 37.148 1003.44 36.416C1003.62 36.524 1003.76 36.71 1003.86 36.974C1003.03 37.898 1001.98 38.36 1000.71 38.36C997.78 38.36 996.316 36.638 996.316 33.194C996.316 31.562 996.748 30.296 997.612 29.396C998.476 28.484 999.484 28.028 1000.64 28.028C1001.9 28.028 1002.8 28.466 1003.35 29.342C1003.91 30.218 1004.18 31.358 1004.18 32.762C1004.06 32.858 1003.94 32.912 1003.8 32.924ZM1000.6 28.748C999.976 28.748 999.442 29.072 998.998 29.72C998.566 30.368 998.302 31.196 998.206 32.204H1000.44C1001.33 32.204 1001.96 32.15 1002.35 32.042C1002.35 31.058 1002.2 30.266 1001.9 29.666C1001.6 29.054 1001.16 28.748 1000.6 28.748ZM1008.8 28.388L1008.76 30.242C1009.06 29.69 1009.47 29.186 1010 28.73C1010.54 28.262 1011.05 28.028 1011.53 28.028C1011.9 28.028 1012.23 28.07 1012.52 28.154C1012.62 28.31 1012.67 28.514 1012.67 28.766C1012.67 29.162 1012.58 29.558 1012.41 29.954C1011.98 29.834 1011.57 29.774 1011.17 29.774C1010.19 29.774 1009.38 30.254 1008.74 31.214L1008.71 34.364V37.082L1010.7 37.352C1010.75 37.544 1010.75 37.784 1010.7 38.072C1009.95 38.036 1009.08 38.018 1008.11 38.018C1007.38 38.018 1006.51 38.03 1005.5 38.054C1005.43 37.826 1005.43 37.592 1005.5 37.352L1006.92 37.154C1006.97 36.494 1007 35.732 1007 34.868V29.936C1007 29.696 1006.98 29.474 1006.94 29.27L1005.52 29.09C1005.47 28.91 1005.47 28.682 1005.52 28.406C1006.35 28.346 1007.38 28.22 1008.62 28.028C1008.72 28.148 1008.78 28.268 1008.8 28.388Z" fill="white"/>
<g filter="url(#filter0_d_151_361)">
<rect x="603" width="261" height="59" rx="29.5" fill="white"/>
</g>
<path d="M723.194 24.944C724.239 24.944 725.178 25.1307 726.01 25.504C726.842 25.8773 727.514 26.3787 728.026 27.008C728.538 27.6267 728.927 28.32 729.194 29.088C729.471 29.8453 729.61 30.64 729.61 31.472C729.61 33.392 729.007 35.0133 727.802 36.336C726.597 37.6587 725.061 38.32 723.194 38.32C722.159 38.32 721.226 38.1333 720.394 37.76C719.562 37.3867 718.89 36.8907 718.378 36.272C717.866 35.6427 717.471 34.9493 717.194 34.192C716.927 33.4347 716.794 32.6453 716.794 31.824C716.794 30.5973 717.061 29.4613 717.594 28.416C718.138 27.3707 718.901 26.5333 719.882 25.904C720.874 25.264 721.978 24.944 723.194 24.944ZM723.178 37.44C724.181 37.44 725.029 37.152 725.722 36.576C726.426 35.9893 726.927 35.2533 727.226 34.368C727.535 33.4827 727.69 32.496 727.69 31.408C727.69 30.3733 727.535 29.4507 727.226 28.64C726.927 27.8187 726.431 27.1467 725.738 26.624C725.045 26.0907 724.191 25.824 723.178 25.824C721.717 25.824 720.607 26.3573 719.85 27.424C719.093 28.4907 718.714 29.824 718.714 31.424C718.714 32.5227 718.863 33.5147 719.162 34.4C719.461 35.2747 719.957 36 720.65 36.576C721.343 37.152 722.186 37.44 723.178 37.44ZM738.798 29.456V35.728C738.798 36.4427 738.814 36.944 738.846 37.232L740.11 37.392C740.142 37.5627 740.142 37.7653 740.11 38C739.331 38.032 738.521 38.1067 737.678 38.224C737.603 38.1493 737.55 38.048 737.518 37.92L737.438 36.496C736.99 37.072 736.526 37.52 736.046 37.84C735.577 38.16 735.022 38.32 734.382 38.32C733.731 38.32 733.182 38.1547 732.734 37.824C732.297 37.4933 732.078 36.928 732.078 36.128V32.576C732.078 31.36 732.062 30.5813 732.03 30.24L730.766 30.08C730.723 29.92 730.723 29.7173 730.766 29.472C731.502 29.4187 732.419 29.3067 733.518 29.136C733.614 29.2427 733.667 29.3493 733.678 29.456C733.625 29.7333 733.598 31.6907 733.598 35.328C733.598 36.0747 733.683 36.608 733.854 36.928C734.035 37.2373 734.366 37.392 734.846 37.392C735.742 37.392 736.553 36.8587 737.278 35.792V32.56C737.278 31.3547 737.262 30.5813 737.23 30.24L735.966 30.08C735.923 29.92 735.923 29.7173 735.966 29.472C736.606 29.4293 737.497 29.3173 738.638 29.136C738.734 29.2427 738.787 29.3493 738.798 29.456ZM735.15 28.352L733.102 25.888C733.699 25.28 734.163 25.0827 734.494 25.296L735.838 28.08C735.689 28.176 735.459 28.2667 735.15 28.352ZM747.763 36.224C748.051 36.224 748.291 36.32 748.483 36.512C748.686 36.6933 748.787 36.9227 748.787 37.2C748.787 37.4773 748.686 37.7173 748.483 37.92C748.291 38.112 748.057 38.208 747.779 38.208C747.502 38.208 747.262 38.112 747.059 37.92C746.867 37.7173 746.771 37.4773 746.771 37.2C746.771 36.9227 746.867 36.6933 747.059 36.512C747.251 36.32 747.486 36.224 747.763 36.224ZM747.155 35.392L746.835 31.472H747.011C747.587 31.472 748.067 31.4187 748.451 31.312C748.835 31.1947 749.145 31.0187 749.379 30.784C749.625 30.5387 749.795 30.2293 749.891 29.856C749.998 29.4827 750.051 29.0347 750.051 28.512C750.051 27.6373 749.902 26.928 749.603 26.384C749.305 25.84 748.867 25.568 748.291 25.568C747.491 25.568 746.958 26.3093 746.691 27.792C746.243 27.792 745.886 27.7707 745.619 27.728C745.353 27.6747 745.161 27.584 745.043 27.456C745.043 27.0293 745.123 26.656 745.283 26.336C745.443 26.016 745.662 25.7493 745.939 25.536C746.227 25.3227 746.558 25.1627 746.931 25.056C747.305 24.9493 747.699 24.896 748.115 24.896C749.374 24.896 750.323 25.2267 750.963 25.888C751.614 26.5493 751.939 27.456 751.939 28.608C751.939 30.8267 750.579 32.0373 747.859 32.24L748.003 35.392C747.929 35.424 747.854 35.4453 747.779 35.456C747.715 35.4667 747.651 35.472 747.587 35.472C747.417 35.472 747.273 35.4453 747.155 35.392Z" fill="#212353"/>
<g filter="url(#filter1_d_151_361)">
<rect x="405" width="230" height="59" rx="29.5" fill="white"/>
</g>
<path d="M504.912 35.7486C504.848 35.5566 504.848 35.3646 504.912 35.1726L506.24 34.9806C506.283 34.5752 506.304 33.9512 506.304 33.1086V23.6846L505.008 23.5246C504.965 23.3646 504.965 23.1672 505.008 22.9326C505.168 22.9432 505.419 22.9486 505.76 22.9486C506.443 22.9486 507.323 22.9219 508.4 22.8686C509.488 22.8046 510.112 22.7726 510.272 22.7726C512.363 22.7726 513.947 23.3379 515.024 24.4686C516.101 25.5992 516.64 27.1192 516.64 29.0286C516.64 30.9699 516.133 32.5806 515.12 33.8606C514.107 35.1406 512.688 35.7806 510.864 35.7806C510.256 35.7806 509.451 35.7699 508.448 35.7486C507.445 35.7379 506.725 35.7326 506.288 35.7326C505.669 35.7326 505.211 35.7379 504.912 35.7486ZM510.256 35.0126C513.264 35.0126 514.768 33.0499 514.768 29.1246C514.768 27.4286 514.373 26.0899 513.584 25.1086C512.805 24.1272 511.68 23.6046 510.208 23.5406C510.08 23.5299 509.883 23.5246 509.616 23.5246C509.051 23.5246 508.539 23.5672 508.08 23.6526C508.037 24.0579 508.016 24.7032 508.016 25.5886V34.9646C508.144 34.9646 508.448 34.9752 508.928 34.9966C509.419 35.0072 509.861 35.0126 510.256 35.0126ZM519.776 33.5886C519.776 34.1432 519.877 34.5379 520.08 34.7726C520.282 34.9966 520.602 35.1086 521.04 35.1086C521.36 35.1086 521.712 35.0126 522.096 34.8206C522.49 34.6179 522.853 34.3299 523.184 33.9566V31.4606C522.085 31.5246 521.242 31.7219 520.656 32.0526C520.069 32.3726 519.776 32.8846 519.776 33.5886ZM523.184 30.8846V30.0686C523.184 29.1619 523.077 28.5059 522.864 28.1006C522.661 27.6846 522.32 27.4766 521.84 27.4766C521.349 27.4766 520.954 27.6366 520.656 27.9566C520.357 28.2659 520.154 28.7992 520.048 29.5566C519.706 29.6312 519.456 29.6686 519.296 29.6686C518.88 29.6686 518.634 29.5192 518.56 29.2206C518.56 28.4952 518.874 27.9192 519.504 27.4926C520.133 27.0659 520.917 26.8526 521.856 26.8526C522.89 26.8526 523.621 27.0659 524.048 27.4926C524.485 27.9086 524.704 28.6606 524.704 29.7486V34.2606C524.704 34.5272 524.72 34.7566 524.752 34.9486L526.016 35.1086C526.058 35.2686 526.058 35.4712 526.016 35.7166C525.258 35.7486 524.453 35.8232 523.6 35.9406C523.514 35.8552 523.461 35.7486 523.44 35.6206L523.36 34.5166C522.474 35.5299 521.488 36.0366 520.4 36.0366C519.728 36.0366 519.2 35.8446 518.816 35.4606C518.442 35.0766 518.256 34.5592 518.256 33.9086C518.256 32.9272 518.698 32.1859 519.584 31.6846C520.48 31.1832 521.68 30.9166 523.184 30.8846ZM529.282 25.2526V27.5406H531.538C531.56 27.6686 531.57 27.7646 531.57 27.8286C531.57 27.9246 531.56 28.0366 531.538 28.1646L529.282 28.5006V32.9006C529.282 33.6899 529.352 34.2499 529.49 34.5806C529.64 34.9006 529.869 35.0606 530.178 35.0606C530.456 35.0606 530.888 34.9486 531.474 34.7246C531.581 34.8206 531.656 35.0019 531.698 35.2686C531.378 35.4606 531.133 35.6046 530.962 35.7006C530.802 35.7859 530.594 35.8606 530.338 35.9246C530.093 35.9992 529.832 36.0366 529.554 36.0366C529.021 36.0366 528.584 35.8339 528.242 35.4286C527.912 35.0126 527.746 34.3832 527.746 33.5406V28.3086L526.626 28.1646C526.605 28.0579 526.594 27.9672 526.594 27.8926C526.594 27.8072 526.605 27.6899 526.626 27.5406C526.925 27.4872 527.181 27.3966 527.394 27.2686C527.618 27.1299 527.805 26.9432 527.954 26.7086C528.104 26.4632 528.216 26.2499 528.29 26.0686C528.376 25.8766 528.477 25.6046 528.594 25.2526C528.69 25.2206 528.808 25.2046 528.946 25.2046C529.074 25.2046 529.186 25.2206 529.282 25.2526ZM539.402 31.2046H534.378C534.282 33.9246 535.098 35.2846 536.826 35.2846C537.562 35.2846 538.314 34.9592 539.082 34.3086C539.242 34.4046 539.364 34.5699 539.45 34.8046C538.714 35.6259 537.78 36.0366 536.65 36.0366C534.047 36.0366 532.746 34.5059 532.746 31.4446C532.746 29.9939 533.13 28.8686 533.898 28.0686C534.666 27.2579 535.562 26.8526 536.586 26.8526C537.706 26.8526 538.511 27.2419 539.002 28.0206C539.492 28.7992 539.738 29.8126 539.738 31.0606C539.631 31.1459 539.519 31.1939 539.402 31.2046ZM536.554 27.4926C535.999 27.4926 535.524 27.7806 535.13 28.3566C534.746 28.9326 534.511 29.6686 534.426 30.5646H536.41C537.199 30.5646 537.764 30.5166 538.106 30.4206C538.106 29.5459 537.972 28.8419 537.706 28.3086C537.439 27.7646 537.055 27.4926 536.554 27.4926ZM544.064 35.3326C544.64 35.3326 545.066 35.1992 545.344 34.9326C545.621 34.6659 545.76 34.3566 545.76 34.0046C545.76 33.8019 545.728 33.6152 545.664 33.4446C545.6 33.2739 545.493 33.1086 545.344 32.9486C545.205 32.7886 545.018 32.6339 544.784 32.4846C544.549 32.3246 544.256 32.1539 543.904 31.9726C543.466 31.7486 543.088 31.5352 542.768 31.3326C542.458 31.1299 542.202 30.9166 542 30.6926C541.797 30.4686 541.642 30.2286 541.536 29.9726C541.44 29.7166 541.392 29.4286 541.392 29.1086C541.392 28.7246 541.461 28.3939 541.6 28.1166C541.738 27.8286 541.93 27.5939 542.176 27.4126C542.432 27.2206 542.73 27.0819 543.072 26.9966C543.413 26.9006 543.792 26.8526 544.208 26.8526C545.04 26.8526 545.85 27.0552 546.64 27.4606V29.5086H545.888L545.536 27.7806C545.066 27.5566 544.57 27.4446 544.048 27.4446C543.173 27.4446 542.736 27.8019 542.736 28.5166C542.736 28.9006 542.88 29.2526 543.168 29.5726C543.456 29.8926 543.92 30.2126 544.56 30.5326C544.997 30.7566 545.381 30.9699 545.712 31.1726C546.042 31.3752 546.314 31.5886 546.528 31.8126C546.752 32.0366 546.917 32.2819 547.024 32.5486C547.141 32.8046 547.2 33.0979 547.2 33.4286C547.2 33.8019 547.12 34.1486 546.96 34.4686C546.8 34.7886 546.576 35.0659 546.288 35.3006C546 35.5246 545.653 35.7006 545.248 35.8286C544.842 35.9672 544.394 36.0366 543.904 36.0366C542.954 36.0366 542.064 35.8339 541.232 35.4286V33.3806H541.984L542.336 34.9646C542.88 35.2099 543.456 35.3326 544.064 35.3326Z" fill="#212353"/>
<g filter="url(#filter2_d_151_361)">
<rect x="5" width="432" height="61" rx="30.5" fill="white"/>
</g>
<path d="M132.69 33.6754V24.4754L127.858 36.7634H127.442L122.786 24.8754V33.6754C122.786 34.5181 122.808 35.1421 122.85 35.5474L124.338 35.7394C124.402 35.9314 124.402 36.1234 124.338 36.3154C123.421 36.2941 122.77 36.2834 122.386 36.2834C121.746 36.2834 121.101 36.2994 120.45 36.3314C120.408 36.0968 120.408 35.8994 120.45 35.7394L121.906 35.5794V26.1554C121.906 25.3128 121.885 24.6888 121.842 24.2834L120.514 24.0914C120.45 23.9101 120.45 23.7288 120.514 23.5474H124.034L128.05 34.0754L132.162 23.5474C132.408 23.5581 132.781 23.5634 133.282 23.5634C133.389 23.5634 134.226 23.5474 135.794 23.5154C135.858 23.7074 135.858 23.8994 135.794 24.0914L134.466 24.2834C134.424 24.6888 134.402 25.3128 134.402 26.1554V35.5794L135.698 35.7394C135.741 35.8994 135.741 36.0968 135.698 36.3314C135.026 36.2994 134.296 36.2834 133.506 36.2834C132.93 36.2834 132.194 36.2941 131.298 36.3154C131.234 36.0488 131.234 35.8568 131.298 35.7394L132.626 35.5474C132.669 35.1421 132.69 34.5181 132.69 33.6754ZM139.967 30.3314V35.4674L141.263 35.7074C141.274 35.7608 141.279 35.8088 141.279 35.8514C141.29 35.8941 141.295 35.9421 141.295 35.9954C141.295 36.0488 141.29 36.1074 141.279 36.1714C141.279 36.2248 141.274 36.2834 141.263 36.3474C140.591 36.3154 139.903 36.2994 139.199 36.2994C138.954 36.2994 138.655 36.2994 138.303 36.2994C137.962 36.3101 137.567 36.3208 137.119 36.3314C137.087 36.2354 137.071 36.1341 137.071 36.0274C137.071 35.9314 137.087 35.8248 137.119 35.7074L138.383 35.5314C138.405 35.2328 138.421 34.9181 138.431 34.5874C138.442 34.2461 138.447 33.8834 138.447 33.4994V30.0914C138.447 29.3874 138.431 28.8648 138.399 28.5234L137.135 28.3634C137.114 28.3101 137.103 28.2194 137.103 28.0914C137.103 28.0381 137.103 27.9848 137.103 27.9314C137.103 27.8781 137.114 27.8194 137.135 27.7554C137.861 27.7128 138.778 27.6008 139.887 27.4194C139.983 27.5261 140.037 27.6328 140.047 27.7394C139.994 28.0381 139.967 28.9021 139.967 30.3314ZM137.631 24.6194C137.61 24.5661 137.599 24.5128 137.599 24.4594C137.599 24.3954 137.599 24.3368 137.599 24.2834C137.599 23.9954 137.717 23.7661 137.951 23.5954C138.197 23.4141 138.495 23.3234 138.847 23.3234C139.178 23.3234 139.445 23.4248 139.647 23.6274C139.861 23.8194 139.967 24.0861 139.967 24.4274C139.967 24.7048 139.845 24.9288 139.599 25.0994C139.365 25.2701 139.061 25.3554 138.687 25.3554C138.431 25.3554 138.202 25.2914 137.999 25.1634C137.807 25.0354 137.685 24.8541 137.631 24.6194ZM149.32 29.7874C149.096 30.0221 148.568 30.1341 147.736 30.1234C147.566 28.7794 147.08 28.1074 146.28 28.1074C145.651 28.1074 145.118 28.4701 144.68 29.1954C144.243 29.9208 144.024 30.8754 144.024 32.0594C144.024 33.2754 144.216 34.2141 144.6 34.8754C144.984 35.5261 145.56 35.8514 146.328 35.8514C147.139 35.8514 147.934 35.5208 148.712 34.8594C148.872 34.9554 148.995 35.1208 149.08 35.3554C148.302 36.1874 147.326 36.6034 146.152 36.6034C145.032 36.6034 144.115 36.2194 143.4 35.4514C142.686 34.6728 142.328 33.5314 142.328 32.0274C142.328 30.5874 142.723 29.4621 143.512 28.6514C144.312 27.8301 145.224 27.4194 146.248 27.4194C147.059 27.4194 147.774 27.6221 148.392 28.0274C149.011 28.4328 149.32 29.0194 149.32 29.7874ZM153.348 27.7394L153.316 29.3874C153.582 28.8968 153.95 28.4488 154.42 28.0434C154.9 27.6274 155.353 27.4194 155.78 27.4194C156.11 27.4194 156.404 27.4568 156.66 27.5314C156.745 27.6701 156.788 27.8514 156.788 28.0754C156.788 28.4274 156.713 28.7794 156.564 29.1314C156.18 29.0248 155.812 28.9714 155.46 28.9714C154.585 28.9714 153.865 29.3981 153.3 30.2514L153.268 33.0514V35.4674L155.044 35.7074C155.086 35.8781 155.086 36.0914 155.044 36.3474C154.372 36.3154 153.604 36.2994 152.74 36.2994C152.089 36.2994 151.316 36.3101 150.42 36.3314C150.356 36.1288 150.356 35.9208 150.42 35.7074L151.684 35.5314C151.726 34.9448 151.748 34.2674 151.748 33.4994V29.1154C151.748 28.9021 151.732 28.7048 151.7 28.5234L150.436 28.3634C150.393 28.2034 150.393 28.0008 150.436 27.7554C151.172 27.7021 152.089 27.5901 153.188 27.4194C153.284 27.5261 153.337 27.6328 153.348 27.7394ZM157.598 32.0274C157.598 31.3874 157.689 30.7901 157.87 30.2354C158.062 29.6701 158.334 29.1794 158.686 28.7634C159.038 28.3474 159.46 28.0221 159.95 27.7874C160.452 27.5421 161.012 27.4194 161.63 27.4194C162.238 27.4194 162.793 27.5421 163.294 27.7874C163.796 28.0221 164.222 28.3474 164.574 28.7634C164.937 29.1794 165.214 29.6701 165.406 30.2354C165.598 30.7901 165.694 31.3874 165.694 32.0274C165.694 32.6888 165.593 33.2968 165.39 33.8514C165.198 34.4061 164.921 34.8914 164.558 35.3074C164.206 35.7128 163.78 36.0328 163.278 36.2674C162.777 36.4914 162.228 36.6034 161.63 36.6034C161.001 36.6034 160.436 36.4914 159.934 36.2674C159.444 36.0434 159.022 35.7288 158.67 35.3234C158.329 34.9181 158.062 34.4381 157.87 33.8834C157.689 33.3181 157.598 32.6994 157.598 32.0274ZM159.934 29.0834C159.476 29.7341 159.246 30.7154 159.246 32.0274C159.246 32.6781 159.305 33.2488 159.422 33.7394C159.55 34.2301 159.721 34.6408 159.934 34.9714C160.148 35.2914 160.398 35.5314 160.686 35.6914C160.974 35.8514 161.289 35.9314 161.63 35.9314C161.961 35.9314 162.276 35.8514 162.574 35.6914C162.873 35.5314 163.129 35.2914 163.342 34.9714C163.556 34.6408 163.726 34.2301 163.854 33.7394C163.982 33.2488 164.046 32.6781 164.046 32.0274C164.046 31.3768 163.982 30.8061 163.854 30.3154C163.726 29.8141 163.55 29.4034 163.326 29.0834C163.113 28.7528 162.857 28.5074 162.558 28.3474C162.27 28.1768 161.961 28.0914 161.63 28.0914C160.969 28.0914 160.404 28.4221 159.934 29.0834ZM178.125 29.7874C177.901 30.0221 177.373 30.1341 176.541 30.1234C176.37 28.7794 175.885 28.1074 175.085 28.1074C174.455 28.1074 173.922 28.4701 173.485 29.1954C173.047 29.9208 172.829 30.8754 172.829 32.0594C172.829 33.2754 173.021 34.2141 173.405 34.8754C173.789 35.5261 174.365 35.8514 175.133 35.8514C175.943 35.8514 176.738 35.5208 177.517 34.8594C177.677 34.9554 177.799 35.1208 177.885 35.3554C177.106 36.1874 176.13 36.6034 174.957 36.6034C173.837 36.6034 172.919 36.2194 172.205 35.4514C171.49 34.6728 171.133 33.5314 171.133 32.0274C171.133 30.5874 171.527 29.4621 172.317 28.6514C173.117 27.8301 174.029 27.4194 175.053 27.4194C175.863 27.4194 176.578 27.6221 177.197 28.0274C177.815 28.4328 178.125 29.0194 178.125 29.7874ZM182.152 27.7394L182.12 29.3874C182.387 28.8968 182.755 28.4488 183.224 28.0434C183.704 27.6274 184.158 27.4194 184.584 27.4194C184.915 27.4194 185.208 27.4568 185.464 27.5314C185.55 27.6701 185.592 27.8514 185.592 28.0754C185.592 28.4274 185.518 28.7794 185.368 29.1314C184.984 29.0248 184.616 28.9714 184.264 28.9714C183.39 28.9714 182.67 29.3981 182.104 30.2514L182.072 33.0514V35.4674L183.848 35.7074C183.891 35.8781 183.891 36.0914 183.848 36.3474C183.176 36.3154 182.408 36.2994 181.544 36.2994C180.894 36.2994 180.12 36.3101 179.224 36.3314C179.16 36.1288 179.16 35.9208 179.224 35.7074L180.488 35.5314C180.531 34.9448 180.552 34.2674 180.552 33.4994V29.1154C180.552 28.9021 180.536 28.7048 180.504 28.5234L179.24 28.3634C179.198 28.2034 179.198 28.0008 179.24 27.7554C179.976 27.7021 180.894 27.5901 181.992 27.4194C182.088 27.5261 182.142 27.6328 182.152 27.7394ZM193.171 31.7714H188.147C188.051 34.4914 188.867 35.8514 190.595 35.8514C191.331 35.8514 192.083 35.5261 192.851 34.8754C193.011 34.9714 193.133 35.1368 193.219 35.3714C192.483 36.1928 191.549 36.6034 190.419 36.6034C187.816 36.6034 186.515 35.0728 186.515 32.0114C186.515 30.5608 186.899 29.4354 187.667 28.6354C188.435 27.8248 189.331 27.4194 190.355 27.4194C191.475 27.4194 192.28 27.8088 192.771 28.5874C193.261 29.3661 193.507 30.3794 193.507 31.6274C193.4 31.7128 193.288 31.7608 193.171 31.7714ZM190.323 28.0594C189.768 28.0594 189.293 28.3474 188.899 28.9234C188.515 29.4994 188.28 30.2354 188.195 31.1314H190.179C190.968 31.1314 191.533 31.0834 191.875 30.9874C191.875 30.1128 191.741 29.4088 191.475 28.8754C191.208 28.3314 190.824 28.0594 190.323 28.0594ZM190.227 26.6354L188.179 24.1714C188.776 23.5634 189.24 23.3661 189.571 23.5794L190.915 26.3634C190.765 26.4594 190.536 26.5501 190.227 26.6354ZM202.083 29.7874C201.859 30.0221 201.331 30.1341 200.499 30.1234C200.329 28.7794 199.843 28.1074 199.043 28.1074C198.414 28.1074 197.881 28.4701 197.443 29.1954C197.006 29.9208 196.787 30.8754 196.787 32.0594C196.787 33.2754 196.979 34.2141 197.363 34.8754C197.747 35.5261 198.323 35.8514 199.091 35.8514C199.902 35.8514 200.697 35.5208 201.475 34.8594C201.635 34.9554 201.758 35.1208 201.843 35.3554C201.065 36.1874 200.089 36.6034 198.915 36.6034C197.795 36.6034 196.878 36.2194 196.163 35.4514C195.449 34.6728 195.091 33.5314 195.091 32.0274C195.091 30.5874 195.486 29.4621 196.275 28.6514C197.075 27.8301 197.987 27.4194 199.011 27.4194C199.822 27.4194 200.537 27.6221 201.155 28.0274C201.774 28.4328 202.083 29.0194 202.083 29.7874ZM204.335 25.8994C204.335 25.1954 204.319 24.6728 204.287 24.3314L203.023 24.1714C202.98 24.0114 202.98 23.8088 203.023 23.5634C203.738 23.5101 204.65 23.3981 205.759 23.2274C205.855 23.3341 205.908 23.4408 205.919 23.5474C205.866 23.8248 205.839 24.6888 205.839 26.1394V29.1634C206.628 28.0754 207.578 27.5314 208.687 27.5314C209.348 27.5314 209.914 27.6968 210.383 28.0274C210.852 28.3581 211.087 28.9234 211.087 29.7234V35.4674L212.383 35.7074C212.426 35.8781 212.426 36.0914 212.383 36.3474C211.711 36.3154 211.028 36.2994 210.335 36.2994C209.844 36.2994 209.151 36.3101 208.255 36.3314C208.191 36.1288 208.191 35.9208 208.255 35.7074L209.519 35.5314C209.562 34.9448 209.583 34.2674 209.583 33.4994V30.5234C209.583 29.7768 209.487 29.2381 209.295 28.9074C209.114 28.5768 208.778 28.4114 208.287 28.4114C207.882 28.4114 207.455 28.5608 207.007 28.8594C206.57 29.1581 206.18 29.5901 205.839 30.1554V35.4674L207.135 35.7074C207.178 35.8781 207.178 36.0914 207.135 36.3474C206.463 36.3154 205.78 36.2994 205.087 36.2994C204.596 36.2994 203.903 36.3101 203.007 36.3314C202.943 36.1288 202.943 35.9208 203.007 35.7074L204.271 35.5314C204.314 34.9448 204.335 34.2674 204.335 33.4994V25.8994ZM220.096 31.7714H215.072C214.976 34.4914 215.792 35.8514 217.52 35.8514C218.256 35.8514 219.008 35.5261 219.776 34.8754C219.936 34.9714 220.059 35.1368 220.144 35.3714C219.408 36.1928 218.475 36.6034 217.344 36.6034C214.742 36.6034 213.44 35.0728 213.44 32.0114C213.44 30.5608 213.824 29.4354 214.592 28.6354C215.36 27.8248 216.256 27.4194 217.28 27.4194C218.4 27.4194 219.206 27.8088 219.696 28.5874C220.187 29.3661 220.432 30.3794 220.432 31.6274C220.326 31.7128 220.214 31.7608 220.096 31.7714ZM217.248 28.0594C216.694 28.0594 216.219 28.3474 215.824 28.9234C215.44 29.4994 215.206 30.2354 215.12 31.1314H217.104C217.894 31.1314 218.459 31.0834 218.8 30.9874C218.8 30.1128 218.667 29.4088 218.4 28.8754C218.134 28.3314 217.75 28.0594 217.248 28.0594ZM222.135 38.6194C221.9 38.5874 221.74 38.4328 221.655 38.1554C222.369 37.7608 222.839 37.2061 223.063 36.4914H223.015C222.737 36.4914 222.497 36.3954 222.295 36.2034C222.103 36.0008 222.007 35.7608 222.007 35.4834C222.007 35.2061 222.103 34.9768 222.295 34.7954C222.487 34.6034 222.721 34.5074 222.999 34.5074C223.287 34.5074 223.527 34.6088 223.719 34.8114C223.921 35.0034 224.023 35.2541 224.023 35.5634C224.023 36.2568 223.857 36.8328 223.527 37.2914C223.196 37.7608 222.732 38.2034 222.135 38.6194ZM230.561 25.8994C230.561 25.1954 230.545 24.6728 230.513 24.3314L229.249 24.1714C229.207 24.0114 229.207 23.8088 229.249 23.5634C229.964 23.5101 230.876 23.3981 231.985 23.2274C232.081 23.3341 232.135 23.4408 232.145 23.5474C232.092 23.8248 232.065 24.6888 232.065 26.1394V29.1634C232.855 28.0754 233.804 27.5314 234.913 27.5314C235.575 27.5314 236.14 27.6968 236.609 28.0274C237.079 28.3581 237.313 28.9234 237.313 29.7234V35.4674L238.609 35.7074C238.652 35.8781 238.652 36.0914 238.609 36.3474C237.937 36.3154 237.255 36.2994 236.561 36.2994C236.071 36.2994 235.377 36.3101 234.481 36.3314C234.417 36.1288 234.417 35.9208 234.481 35.7074L235.745 35.5314C235.788 34.9448 235.809 34.2674 235.809 33.4994V30.5234C235.809 29.7768 235.713 29.2381 235.521 28.9074C235.34 28.5768 235.004 28.4114 234.513 28.4114C234.108 28.4114 233.681 28.5608 233.233 28.8594C232.796 29.1581 232.407 29.5901 232.065 30.1554V35.4674L233.361 35.7074C233.404 35.8781 233.404 36.0914 233.361 36.3474C232.689 36.3154 232.007 36.2994 231.313 36.2994C230.823 36.2994 230.129 36.3101 229.233 36.3314C229.169 36.1288 229.169 35.9208 229.233 35.7074L230.497 35.5314C230.54 34.9448 230.561 34.2674 230.561 33.4994V25.8994ZM241.107 34.1554C241.107 34.7101 241.208 35.1048 241.411 35.3394C241.613 35.5634 241.933 35.6754 242.371 35.6754C242.691 35.6754 243.043 35.5794 243.427 35.3874C243.821 35.1848 244.184 34.8968 244.515 34.5234V32.0274C243.416 32.0914 242.573 32.2888 241.987 32.6194C241.4 32.9394 241.107 33.4514 241.107 34.1554ZM244.515 31.4514V30.6354C244.515 29.7288 244.408 29.0728 244.195 28.6674C243.992 28.2514 243.651 28.0434 243.171 28.0434C242.68 28.0434 242.285 28.2034 241.987 28.5234C241.688 28.8328 241.485 29.3661 241.379 30.1234C241.037 30.1981 240.787 30.2354 240.627 30.2354C240.211 30.2354 239.965 30.0861 239.891 29.7874C239.891 29.0621 240.205 28.4861 240.835 28.0594C241.464 27.6328 242.248 27.4194 243.187 27.4194C244.221 27.4194 244.952 27.6328 245.379 28.0594C245.816 28.4754 246.035 29.2274 246.035 30.3154V34.8274C246.035 35.0941 246.051 35.3234 246.083 35.5154L247.347 35.6754C247.389 35.8354 247.389 36.0381 247.347 36.2834C246.589 36.3154 245.784 36.3901 244.931 36.5074C244.845 36.4221 244.792 36.3154 244.771 36.1874L244.691 35.0834C243.805 36.0968 242.819 36.6034 241.731 36.6034C241.059 36.6034 240.531 36.4114 240.147 36.0274C239.773 35.6434 239.587 35.1261 239.587 34.4754C239.587 33.4941 240.029 32.7528 240.915 32.2514C241.811 31.7501 243.011 31.4834 244.515 31.4514ZM250.726 26.1394V35.4674L252.022 35.7074C252.064 35.8781 252.064 36.0914 252.022 36.3474C251.35 36.3154 250.662 36.2994 249.958 36.2994C249.467 36.2994 248.774 36.3101 247.878 36.3314C247.814 36.1288 247.814 35.9208 247.878 35.7074L249.142 35.5314C249.184 34.9448 249.206 34.2674 249.206 33.4994V24.3314L247.894 24.1714C247.851 24.0114 247.851 23.8088 247.894 23.5634C248.63 23.5101 249.547 23.3981 250.646 23.2274C250.742 23.3341 250.795 23.4408 250.806 23.5474C250.752 23.8248 250.726 24.6888 250.726 26.1394ZM255.475 25.8194V28.1074H257.731C257.752 28.2354 257.763 28.3314 257.763 28.3954C257.763 28.4914 257.752 28.6034 257.731 28.7314L255.475 29.0674V33.4674C255.475 34.2568 255.544 34.8168 255.683 35.1474C255.832 35.4674 256.061 35.6274 256.371 35.6274C256.648 35.6274 257.08 35.5154 257.667 35.2914C257.773 35.3874 257.848 35.5688 257.891 35.8354C257.571 36.0274 257.325 36.1714 257.155 36.2674C256.995 36.3528 256.787 36.4274 256.531 36.4914C256.285 36.5661 256.024 36.6034 255.747 36.6034C255.213 36.6034 254.776 36.4008 254.435 35.9954C254.104 35.5794 253.939 34.9501 253.939 34.1074V28.8754L252.819 28.7314C252.797 28.6248 252.787 28.5341 252.787 28.4594C252.787 28.3741 252.797 28.2568 252.819 28.1074C253.117 28.0541 253.373 27.9634 253.587 27.8354C253.811 27.6968 253.997 27.5101 254.147 27.2754C254.296 27.0301 254.408 26.8168 254.483 26.6354C254.568 26.4434 254.669 26.1714 254.787 25.8194C254.883 25.7874 255 25.7714 255.139 25.7714C255.267 25.7714 255.379 25.7874 255.475 25.8194ZM265.594 31.7714H260.57C260.474 34.4914 261.29 35.8514 263.018 35.8514C263.754 35.8514 264.506 35.5261 265.274 34.8754C265.434 34.9714 265.557 35.1368 265.642 35.3714C264.906 36.1928 263.973 36.6034 262.842 36.6034C260.239 36.6034 258.938 35.0728 258.938 32.0114C258.938 30.5608 259.322 29.4354 260.09 28.6354C260.858 27.8248 261.754 27.4194 262.778 27.4194C263.898 27.4194 264.703 27.8088 265.194 28.5874C265.685 29.3661 265.93 30.3794 265.93 31.6274C265.823 31.7128 265.711 31.7608 265.594 31.7714ZM262.746 28.0594C262.191 28.0594 261.717 28.3474 261.322 28.9234C260.938 29.4994 260.703 30.2354 260.618 31.1314H262.602C263.391 31.1314 263.957 31.0834 264.298 30.9874C264.298 30.1128 264.165 29.4088 263.898 28.8754C263.631 28.3314 263.247 28.0594 262.746 28.0594ZM272.642 36.4594C272.738 36.5021 272.818 36.5928 272.882 36.7314C272.53 37.0194 272.354 37.4514 272.354 38.0274C272.354 38.5394 272.588 38.9501 273.058 39.2594C273.527 39.5688 274.135 39.7234 274.882 39.7234C275.65 39.7234 276.29 39.5794 276.802 39.2914C277.314 39.0141 277.57 38.6194 277.57 38.1074C277.57 37.5528 277.468 37.1421 277.266 36.8754C277.063 36.6194 276.658 36.4648 276.05 36.4114L273.058 36.1394C272.727 36.0968 272.45 35.9261 272.226 35.6274C272.012 35.3181 271.906 35.0194 271.906 34.7314L272.978 32.9554C272.487 32.6781 272.114 32.3101 271.858 31.8514C271.612 31.3928 271.49 30.9234 271.49 30.4434C271.49 29.5368 271.826 28.8061 272.498 28.2514C273.17 27.6968 273.943 27.4194 274.818 27.4194C275.66 27.4194 276.402 27.6434 277.042 28.0914C277.095 26.6301 277.639 25.8728 278.674 25.8194C278.951 25.8834 279.09 26.1128 279.09 26.5074C279.09 26.7208 279.068 26.9554 279.026 27.2114C278.61 27.2434 278.268 27.3821 278.002 27.6274C277.735 27.8621 277.543 28.1341 277.426 28.4434C277.959 28.9768 278.226 29.6434 278.226 30.4434C278.226 31.2861 277.884 31.9901 277.202 32.5554C276.519 33.1101 275.724 33.3874 274.818 33.3874C274.338 33.3874 273.906 33.3234 273.522 33.1954L272.978 34.6194L276.962 35.0194C277.58 35.0941 278.05 35.3234 278.37 35.7074C278.7 36.0808 278.866 36.5714 278.866 37.1794C278.866 38.2461 278.482 39.0621 277.714 39.6274C276.946 40.2034 275.906 40.4914 274.594 40.4914C273.506 40.4914 272.658 40.2941 272.05 39.8994C271.442 39.5048 271.138 38.9768 271.138 38.3154C271.138 37.8674 271.282 37.4674 271.57 37.1154C271.858 36.7741 272.215 36.5554 272.642 36.4594ZM272.93 30.4434C272.93 31.0621 273.1 31.5901 273.442 32.0274C273.794 32.4648 274.258 32.6834 274.834 32.6834C275.399 32.6834 275.863 32.4701 276.226 32.0434C276.588 31.6061 276.77 31.0728 276.77 30.4434C276.77 29.7608 276.588 29.1954 276.226 28.7474C275.874 28.2888 275.41 28.0594 274.834 28.0594C274.29 28.0594 273.836 28.2888 273.474 28.7474C273.111 29.2061 272.93 29.7714 272.93 30.4434ZM281.352 34.1554C281.352 34.7101 281.454 35.1048 281.656 35.3394C281.859 35.5634 282.179 35.6754 282.616 35.6754C282.936 35.6754 283.288 35.5794 283.672 35.3874C284.067 35.1848 284.43 34.8968 284.76 34.5234V32.0274C283.662 32.0914 282.819 32.2888 282.232 32.6194C281.646 32.9394 281.352 33.4514 281.352 34.1554ZM284.76 31.4514V30.6354C284.76 29.7288 284.654 29.0728 284.44 28.6674C284.238 28.2514 283.896 28.0434 283.416 28.0434C282.926 28.0434 282.531 28.2034 282.232 28.5234C281.934 28.8328 281.731 29.3661 281.624 30.1234C281.283 30.1981 281.032 30.2354 280.872 30.2354C280.456 30.2354 280.211 30.0861 280.136 29.7874C280.136 29.0621 280.451 28.4861 281.08 28.0594C281.71 27.6328 282.494 27.4194 283.432 27.4194C284.467 27.4194 285.198 27.6328 285.624 28.0594C286.062 28.4754 286.28 29.2274 286.28 30.3154V34.8274C286.28 35.0941 286.296 35.3234 286.328 35.5154L287.592 35.6754C287.635 35.8354 287.635 36.0381 287.592 36.2834C286.835 36.3154 286.03 36.3901 285.176 36.5074C285.091 36.4221 285.038 36.3154 285.016 36.1874L284.936 35.0834C284.051 36.0968 283.064 36.6034 281.976 36.6034C281.304 36.6034 280.776 36.4114 280.392 36.0274C280.019 35.6434 279.832 35.1261 279.832 34.4754C279.832 33.4941 280.275 32.7528 281.16 32.2514C282.056 31.7501 283.256 31.4834 284.76 31.4514ZM291.227 27.7394L291.195 29.3874C291.462 28.8968 291.83 28.4488 292.299 28.0434C292.779 27.6274 293.233 27.4194 293.659 27.4194C293.99 27.4194 294.283 27.4568 294.539 27.5314C294.625 27.6701 294.667 27.8514 294.667 28.0754C294.667 28.4274 294.593 28.7794 294.443 29.1314C294.059 29.0248 293.691 28.9714 293.339 28.9714C292.465 28.9714 291.745 29.3981 291.179 30.2514L291.147 33.0514V35.4674L292.923 35.7074C292.966 35.8781 292.966 36.0914 292.923 36.3474C292.251 36.3154 291.483 36.2994 290.619 36.2994C289.969 36.2994 289.195 36.3101 288.299 36.3314C288.235 36.1288 288.235 35.9208 288.299 35.7074L289.563 35.5314C289.606 34.9448 289.627 34.2674 289.627 33.4994V29.1154C289.627 28.9021 289.611 28.7048 289.579 28.5234L288.315 28.3634C288.273 28.2034 288.273 28.0008 288.315 27.7554C289.051 27.7021 289.969 27.5901 291.067 27.4194C291.163 27.5261 291.217 27.6328 291.227 27.7394ZM303.175 34.0114C303.175 34.7261 303.191 35.2274 303.223 35.5154L304.487 35.6754C304.519 35.8461 304.519 36.0488 304.487 36.2834C303.708 36.3154 302.897 36.3901 302.055 36.5074C301.98 36.4328 301.927 36.3314 301.895 36.2034L301.815 35.1794C301.441 35.6168 300.977 35.9688 300.423 36.2354C299.868 36.4914 299.287 36.6194 298.679 36.6194C297.751 36.6194 296.983 36.2354 296.375 35.4674C295.767 34.6888 295.463 33.6541 295.463 32.3634C295.463 30.8701 295.857 29.6754 296.647 28.7794C297.447 27.8728 298.401 27.4194 299.511 27.4194C300.385 27.4194 301.1 27.6274 301.655 28.0434V25.8994C301.655 25.1954 301.639 24.6728 301.607 24.3314L300.343 24.1714C300.3 24.0114 300.3 23.8088 300.343 23.5634C301.079 23.5101 301.996 23.3981 303.095 23.2274C303.191 23.3341 303.244 23.4408 303.255 23.5474C303.201 23.8248 303.175 24.6888 303.175 26.1394V34.0114ZM299.383 28.2834C298.689 28.2834 298.135 28.6514 297.719 29.3874C297.303 30.1128 297.095 31.1208 297.095 32.4114C297.095 33.4674 297.287 34.2728 297.671 34.8274C298.065 35.3821 298.583 35.6594 299.223 35.6594C299.607 35.6594 300.028 35.5421 300.487 35.3074C300.945 35.0621 301.335 34.7261 301.655 34.2994V29.1794C301.132 28.5821 300.375 28.2834 299.383 28.2834ZM312.215 31.7714H307.191C307.095 34.4914 307.911 35.8514 309.639 35.8514C310.375 35.8514 311.127 35.5261 311.895 34.8754C312.055 34.9714 312.177 35.1368 312.263 35.3714C311.527 36.1928 310.593 36.6034 309.463 36.6034C306.86 36.6034 305.559 35.0728 305.559 32.0114C305.559 30.5608 305.943 29.4354 306.711 28.6354C307.479 27.8248 308.375 27.4194 309.399 27.4194C310.519 27.4194 311.324 27.8088 311.815 28.5874C312.305 29.3661 312.551 30.3794 312.551 31.6274C312.444 31.7128 312.332 31.7608 312.215 31.7714ZM309.367 28.0594C308.812 28.0594 308.337 28.3474 307.943 28.9234C307.559 29.4994 307.324 30.2354 307.239 31.1314H309.223C310.012 31.1314 310.577 31.0834 310.919 30.9874C310.919 30.1128 310.785 29.4088 310.519 28.8754C310.252 28.3314 309.868 28.0594 309.367 28.0594ZM316.733 27.7394L316.701 29.3874C316.967 28.8968 317.335 28.4488 317.805 28.0434C318.285 27.6274 318.738 27.4194 319.165 27.4194C319.495 27.4194 319.789 27.4568 320.045 27.5314C320.13 27.6701 320.173 27.8514 320.173 28.0754C320.173 28.4274 320.098 28.7794 319.949 29.1314C319.565 29.0248 319.197 28.9714 318.845 28.9714C317.97 28.9714 317.25 29.3981 316.685 30.2514L316.653 33.0514V35.4674L318.429 35.7074C318.471 35.8781 318.471 36.0914 318.429 36.3474C317.757 36.3154 316.989 36.2994 316.125 36.2994C315.474 36.2994 314.701 36.3101 313.805 36.3314C313.741 36.1288 313.741 35.9208 313.805 35.7074L315.069 35.5314C315.111 34.9448 315.133 34.2674 315.133 33.4994V29.1154C315.133 28.9021 315.117 28.7048 315.085 28.5234L313.821 28.3634C313.778 28.2034 313.778 28.0008 313.821 27.7554C314.557 27.7021 315.474 27.5901 316.573 27.4194C316.669 27.5261 316.722 27.6328 316.733 27.7394ZM323.686 30.3314V35.4674L324.982 35.7074C324.993 35.7608 324.998 35.8088 324.998 35.8514C325.009 35.8941 325.014 35.9421 325.014 35.9954C325.014 36.0488 325.009 36.1074 324.998 36.1714C324.998 36.2248 324.993 36.2834 324.982 36.3474C324.31 36.3154 323.622 36.2994 322.918 36.2994C322.673 36.2994 322.374 36.2994 322.022 36.2994C321.681 36.3101 321.286 36.3208 320.838 36.3314C320.806 36.2354 320.79 36.1341 320.79 36.0274C320.79 35.9314 320.806 35.8248 320.838 35.7074L322.102 35.5314C322.123 35.2328 322.139 34.9181 322.15 34.5874C322.161 34.2461 322.166 33.8834 322.166 33.4994V30.0914C322.166 29.3874 322.15 28.8648 322.118 28.5234L320.854 28.3634C320.833 28.3101 320.822 28.2194 320.822 28.0914C320.822 28.0381 320.822 27.9848 320.822 27.9314C320.822 27.8781 320.833 27.8194 320.854 27.7554C321.579 27.7128 322.497 27.6008 323.606 27.4194C323.702 27.5261 323.755 27.6328 323.766 27.7394C323.713 28.0381 323.686 28.9021 323.686 30.3314ZM321.35 24.6194C321.329 24.5661 321.318 24.5128 321.318 24.4594C321.318 24.3954 321.318 24.3368 321.318 24.2834C321.318 23.9954 321.435 23.7661 321.67 23.5954C321.915 23.4141 322.214 23.3234 322.566 23.3234C322.897 23.3234 323.163 23.4248 323.366 23.6274C323.579 23.8194 323.686 24.0861 323.686 24.4274C323.686 24.7048 323.563 24.9288 323.318 25.0994C323.083 25.2701 322.779 25.3554 322.406 25.3554C322.15 25.3554 321.921 25.2914 321.718 25.1634C321.526 25.0354 321.403 24.8541 321.35 24.6194ZM332.767 31.7714H327.743C327.647 34.4914 328.463 35.8514 330.191 35.8514C330.927 35.8514 331.679 35.5261 332.447 34.8754C332.607 34.9714 332.73 35.1368 332.815 35.3714C332.079 36.1928 331.146 36.6034 330.015 36.6034C327.412 36.6034 326.111 35.0728 326.111 32.0114C326.111 30.5608 326.495 29.4354 327.263 28.6354C328.031 27.8248 328.927 27.4194 329.951 27.4194C331.071 27.4194 331.876 27.8088 332.367 28.5874C332.858 29.3661 333.103 30.3794 333.103 31.6274C332.996 31.7128 332.884 31.7608 332.767 31.7714ZM329.919 28.0594C329.364 28.0594 328.89 28.3474 328.495 28.9234C328.111 29.4994 327.876 30.2354 327.791 31.1314H329.775C330.564 31.1314 331.13 31.0834 331.471 30.9874C331.471 30.1128 331.338 29.4088 331.071 28.8754C330.804 28.3314 330.42 28.0594 329.919 28.0594ZM335.669 34.5074C335.957 34.5074 336.197 34.6034 336.389 34.7954C336.592 34.9768 336.693 35.2061 336.693 35.4834C336.693 35.7608 336.592 36.0008 336.389 36.2034C336.197 36.3954 335.963 36.4914 335.685 36.4914C335.408 36.4914 335.168 36.3954 334.965 36.2034C334.773 36.0008 334.677 35.7608 334.677 35.4834C334.677 35.2061 334.773 34.9768 334.965 34.7954C335.157 34.6034 335.392 34.5074 335.669 34.5074ZM339.359 34.5074C339.647 34.5074 339.887 34.6034 340.079 34.7954C340.281 34.9768 340.383 35.2061 340.383 35.4834C340.383 35.7608 340.281 36.0008 340.079 36.2034C339.887 36.3954 339.652 36.4914 339.375 36.4914C339.097 36.4914 338.857 36.3954 338.655 36.2034C338.463 36.0008 338.367 35.7608 338.367 35.4834C338.367 35.2061 338.463 34.9768 338.655 34.7954C338.847 34.6034 339.081 34.5074 339.359 34.5074ZM343.048 34.5074C343.336 34.5074 343.576 34.6034 343.768 34.7954C343.971 34.9768 344.072 35.2061 344.072 35.4834C344.072 35.7608 343.971 36.0008 343.768 36.2034C343.576 36.3954 343.341 36.4914 343.064 36.4914C342.787 36.4914 342.547 36.3954 342.344 36.2034C342.152 36.0008 342.056 35.7608 342.056 35.4834C342.056 35.2061 342.152 34.9768 342.344 34.7954C342.536 34.6034 342.771 34.5074 343.048 34.5074Z" fill="#212353"/>
<defs>
<filter id="filter0_d_151_361" x="598" y="0" width="271" height="69" filterUnits="userSpaceOnUse" color-interpolation-filters="sRGB">
<feFlood flood-opacity="0" result="BackgroundImageFix"/>
<feColorMatrix in="SourceAlpha" type="matrix" values="0 0 0 0 0 0 0 0 0 0 0 0 0 0 0 0 0 0 127 0" result="hardAlpha"/>
<feOffset dy="5"/>
<feGaussianBlur stdDeviation="2.5"/>
<feColorMatrix type="matrix" values="0 0 0 0 0.294064 0 0 0 0 0.364384 0 0 0 0 0.405936 0 0 0 0.1 0"/>
<feBlend mode="normal" in2="BackgroundImageFix" result="effect1_dropShadow_151_361"/>
<feBlend mode="normal" in="SourceGraphic" in2="effect1_dropShadow_151_361" result="shape"/>
</filter>
<filter id="filter1_d_151_361" x="400" y="0" width="240" height="69" filterUnits="userSpaceOnUse" color-interpolation-filters="sRGB">
<feFlood flood-opacity="0" result="BackgroundImageFix"/>
<feColorMatrix in="SourceAlpha" type="matrix" values="0 0 0 0 0 0 0 0 0 0 0 0 0 0 0 0 0 0 127 0" result="hardAlpha"/>
<feOffset dy="5"/>
<feGaussianBlur stdDeviation="2.5"/>
<feColorMatrix type="matrix" values="0 0 0 0 0.294064 0 0 0 0 0.364384 0 0 0 0 0.405936 0 0 0 0.1 0"/>
<feBlend mode="normal" in2="BackgroundImageFix" result="effect1_dropShadow_151_361"/>
<feBlend mode="normal" in="SourceGraphic" in2="effect1_dropShadow_151_361" result="shape"/>
</filter>
<filter id="filter2_d_151_361" x="0" y="0" width="442" height="71" filterUnits="userSpaceOnUse" color-interpolation-filters="sRGB">
<feFlood flood-opacity="0" result="BackgroundImageFix"/>
<feColorMatrix in="SourceAlpha" type="matrix" values="0 0 0 0 0 0 0 0 0 0 0 0 0 0 0 0 0 0 127 0" result="hardAlpha"/>
<feOffset dy="5"/>
<feGaussianBlur stdDeviation="2.5"/>
<feColorMatrix type="matrix" values="0 0 0 0 0.294064 0 0 0 0 0.364384 0 0 0 0 0.405936 0 0 0 0.1 0"/>
<feBlend mode="normal" in2="BackgroundImageFix" result="effect1_dropShadow_151_361"/>
<feBlend mode="normal" in="SourceGraphic" in2="effect1_dropShadow_151_361" result="shape"/>
</filter>
</defs>
</svg>
