<svg width="32" height="32" viewBox="0 0 32 32" fill="none" xmlns="http://www.w3.org/2000/svg">
<g filter="url(#filter0_d_1_4927)">
<path fill-rule="evenodd" clip-rule="evenodd" d="M16 27C23.1797 27 29 21.1797 29 14C29 6.8203 23.1797 1 16 1C8.8203 1 3 6.8203 3 14C3 21.1797 8.8203 27 16 27Z" fill="#50D3C4"/>
</g>
<path fill-rule="evenodd" clip-rule="evenodd" d="M21.0839 10.7201C20.8819 10.5181 20.5544 10.5181 20.3524 10.7201L15.135 15.9374C15.1273 15.9286 15.1192 15.9199 15.1107 15.9115L12.7226 13.5234C12.5068 13.3075 12.1568 13.3075 11.9409 13.5234C11.7251 13.7392 11.7251 14.0892 11.9409 14.3051L14.3291 16.6932C14.4017 16.7658 14.4895 16.814 14.5823 16.8378C14.6036 16.928 14.6495 17.0136 14.7199 17.084C14.9219 17.286 15.2494 17.286 15.4514 17.084L21.0839 11.4515C21.2858 11.2495 21.2858 10.922 21.0839 10.7201Z" fill="white"/>
<path d="M15.135 15.9374L14.8874 16.1555C14.9476 16.2239 15.0335 16.2643 15.1246 16.2672C15.2157 16.2701 15.3039 16.2352 15.3684 16.1707L15.135 15.9374ZM14.5823 16.8378L14.9035 16.7618C14.8752 16.6424 14.783 16.5485 14.6641 16.5181L14.5823 16.8378ZM15.4514 17.084L15.218 16.8507L15.4514 17.084ZM21.0839 11.4515L21.3172 11.6849L21.0839 11.4515ZM20.5857 10.9534C20.6588 10.8803 20.7774 10.8803 20.8505 10.9534L21.3172 10.4867C20.9863 10.1558 20.4499 10.1558 20.119 10.4867L20.5857 10.9534ZM15.3684 16.1707L20.5857 10.9534L20.119 10.4867L14.9017 15.704L15.3684 16.1707ZM14.8774 16.1448C14.8809 16.1483 14.8842 16.1519 14.8874 16.1555L15.3827 15.7193C15.3703 15.7052 15.3574 15.6915 15.3441 15.6782L14.8774 16.1448ZM12.4893 13.7567L14.8774 16.1448L15.3441 15.6782L12.956 13.29L12.4893 13.7567ZM12.1743 13.7567C12.2613 13.6697 12.4023 13.6697 12.4893 13.7567L12.956 13.29C12.6112 12.9453 12.0523 12.9453 11.7076 13.29L12.1743 13.7567ZM12.1743 14.0717C12.0873 13.9847 12.0873 13.8437 12.1743 13.7567L11.7076 13.29C11.3629 13.6348 11.3629 14.1937 11.7076 14.5384L12.1743 14.0717ZM14.5624 16.4598L12.1743 14.0717L11.7076 14.5384L14.0957 16.9265L14.5624 16.4598ZM14.6641 16.5181C14.6271 16.5086 14.592 16.4895 14.5624 16.4598L14.0957 16.9265C14.2113 17.0421 14.3519 17.1194 14.5005 17.1575L14.6641 16.5181ZM14.9532 16.8507C14.9274 16.8248 14.9111 16.7942 14.9035 16.7618L14.2612 16.9137C14.2962 17.0618 14.3716 17.2024 14.4865 17.3174L14.9532 16.8507ZM15.218 16.8507C15.1449 16.9238 15.0264 16.9238 14.9532 16.8507L14.4865 17.3174C14.8174 17.6482 15.3539 17.6482 15.6847 17.3174L15.218 16.8507ZM20.8505 11.2182L15.218 16.8507L15.6847 17.3174L21.3172 11.6849L20.8505 11.2182ZM20.8505 10.9534C20.9236 11.0265 20.9236 11.1451 20.8505 11.2182L21.3172 11.6849C21.6481 11.354 21.6481 10.8176 21.3172 10.4867L20.8505 10.9534Z" fill="white"/>
<defs>
<filter id="filter0_d_1_4927" x="0" y="0" width="32" height="32" filterUnits="userSpaceOnUse" color-interpolation-filters="sRGB">
<feFlood flood-opacity="0" result="BackgroundImageFix"/>
<feColorMatrix in="SourceAlpha" type="matrix" values="0 0 0 0 0 0 0 0 0 0 0 0 0 0 0 0 0 0 127 0" result="hardAlpha"/>
<feOffset dy="2"/>
<feGaussianBlur stdDeviation="1.5"/>
<feColorMatrix type="matrix" values="0 0 0 0 0.119978 0 0 0 0 0.193959 0 0 0 0 0.289275 0 0 0 0.122452 0"/>
<feBlend mode="normal" in2="BackgroundImageFix" result="effect1_dropShadow_1_4927"/>
<feBlend mode="normal" in="SourceGraphic" in2="effect1_dropShadow_1_4927" result="shape"/>
</filter>
</defs>
</svg>
